<?xml version="1.0" encoding="UTF-8" standalone="no"?>
<!DOCTYPE svg PUBLIC "-//W3C//DTD SVG 1.1//EN"
 "http://www.w3.org/Graphics/SVG/1.1/DTD/svg11.dtd">
<!-- Generated by graphviz version 2.40.1 (20161225.0304)
 -->
<!-- Title: dependencies Pages: 1 -->
<svg width="1389pt" height="284pt"
 viewBox="0.00 0.00 1389.00 284.00" xmlns="http://www.w3.org/2000/svg" xmlns:xlink="http://www.w3.org/1999/xlink">
<g id="graph0" class="graph" transform="scale(1 1) rotate(0) translate(4 280)">
<title>dependencies</title>
<polygon fill="#ffffff" stroke="transparent" points="-4,4 -4,-280 1385,-280 1385,4 -4,4"/>
<text text-anchor="start" x="669.5091" y="-42.4" font-family="sans-serif" font-weight="bold" font-size="14.00" fill="#000000">Legend</text>
<polygon fill="#ffffb3" stroke="transparent" points="456.5,-10 456.5,-30 476.5,-30 476.5,-10 456.5,-10"/>
<text text-anchor="start" x="480.129" y="-15.4" font-family="sans-serif" font-size="14.00" fill="#000000"> &#160;Declarations</text>
<polygon fill="#8dd3c7" stroke="transparent" points="569.5,-10 569.5,-30 589.5,-30 589.5,-10 569.5,-10"/>
<text text-anchor="start" x="593.2251" y="-15.4" font-family="sans-serif" font-size="14.00" fill="#000000"> &#160;Module</text>
<polygon fill="#80b1d3" stroke="transparent" points="655.5,-10 655.5,-30 675.5,-30 675.5,-10 655.5,-10"/>
<text text-anchor="start" x="679.2812" y="-15.4" font-family="sans-serif" font-size="14.00" fill="#000000"> &#160;Bootstrap</text>
<polygon fill="#fdb462" stroke="transparent" points="752.5,-10 752.5,-30 772.5,-30 772.5,-10 752.5,-10"/>
<text text-anchor="start" x="776.1732" y="-15.4" font-family="sans-serif" font-size="14.00" fill="#000000"> &#160;Providers</text>
<polygon fill="#fb8072" stroke="transparent" points="848.5,-10 848.5,-30 868.5,-30 868.5,-10 848.5,-10"/>
<text text-anchor="start" x="872.2258" y="-15.4" font-family="sans-serif" font-size="14.00" fill="#000000"> &#160;Exports</text>
<g id="clust1" class="cluster">
<title>cluster_TeamModule</title>
<polygon fill="none" stroke="#000000" stroke-dasharray="1,5" points="8,-70 8,-268 1373,-268 1373,-70 8,-70"/>
</g>
<g id="clust2" class="cluster">
<title>cluster_TeamModule_declarations</title>
<polygon fill="none" stroke="#000000" points="842,-78 842,-130 1365,-130 1365,-78 842,-78"/>
</g>
<g id="clust6" class="cluster">
<title>cluster_TeamModule_imports</title>
<polygon fill="none" stroke="#000000" points="16,-78 16,-130 834,-130 834,-78 16,-78"/>
</g>
<g id="clust7" class="cluster">
<title>cluster_TeamModule_exports</title>
<polygon fill="none" stroke="#000000" points="556,-208 556,-260 756,-260 756,-208 556,-208"/>
</g>
<!-- TeamDetailComponent -->
<g id="node1" class="node">
<title>TeamDetailComponent</title>
<polygon fill="#ffffb3" stroke="#000000" points="1356.913,-122 1209.087,-122 1209.087,-86 1356.913,-86 1356.913,-122"/>
<text text-anchor="middle" x="1283" y="-99.8" font-family="Times,serif" font-size="14.00" fill="#000000">TeamDetailComponent</text>
</g>
<!-- TeamModule -->
<g id="node4" class="node">
<title>TeamModule</title>
<polygon fill="#8dd3c7" stroke="#000000" points="701.9232,-187 698.9232,-191 677.9232,-191 674.9232,-187 610.0768,-187 610.0768,-151 701.9232,-151 701.9232,-187"/>
<text text-anchor="middle" x="656" y="-164.8" font-family="Times,serif" font-size="14.00" fill="#000000">TeamModule</text>
</g>
<!-- TeamDetailComponent&#45;&gt;TeamModule -->
<g id="edge1" class="edge">
<title>TeamDetailComponent&#45;&gt;TeamModule</title>
<path fill="none" stroke="#000000" d="M1283,-122.0109C1283,-144.4852 1283,-180 1283,-180 1283,-180 711.8508,-180 711.8508,-180"/>
<polygon fill="#000000" stroke="#000000" points="711.8508,-176.5001 701.8508,-180 711.8507,-183.5001 711.8508,-176.5001"/>
</g>
<!-- TeamFormComponent -->
<g id="node2" class="node">
<title>TeamFormComponent</title>
<polygon fill="#ffffb3" stroke="#000000" points="1191.5393,-122 1048.4607,-122 1048.4607,-86 1191.5393,-86 1191.5393,-122"/>
<text text-anchor="middle" x="1120" y="-99.8" font-family="Times,serif" font-size="14.00" fill="#000000">TeamFormComponent</text>
</g>
<!-- TeamFormComponent&#45;&gt;TeamModule -->
<g id="edge2" class="edge">
<title>TeamFormComponent&#45;&gt;TeamModule</title>
<path fill="none" stroke="#000000" d="M1120,-122.1289C1120,-142.5724 1120,-173 1120,-173 1120,-173 711.76,-173 711.76,-173"/>
<polygon fill="#000000" stroke="#000000" points="711.76,-169.5001 701.76,-173 711.7599,-176.5001 711.76,-169.5001"/>
</g>
<!-- TeamListSidenavComponent -->
<g id="node3" class="node">
<title>TeamListSidenavComponent</title>
<polygon fill="#ffffb3" stroke="#000000" points="1030.0856,-122 849.9144,-122 849.9144,-86 1030.0856,-86 1030.0856,-122"/>
<text text-anchor="middle" x="940" y="-99.8" font-family="Times,serif" font-size="14.00" fill="#000000">TeamListSidenavComponent</text>
</g>
<!-- TeamListSidenavComponent&#45;&gt;TeamModule -->
<g id="edge3" class="edge">
<title>TeamListSidenavComponent&#45;&gt;TeamModule</title>
<path fill="none" stroke="#000000" d="M940,-122.2667C940,-140.5552 940,-166 940,-166 940,-166 711.9451,-166 711.9451,-166"/>
<polygon fill="#000000" stroke="#000000" points="711.9452,-162.5001 701.9451,-166 711.9451,-169.5001 711.9452,-162.5001"/>
</g>
<!-- TeamListSidenavComponent  -->
<g id="node11" class="node">
<title>TeamListSidenavComponent </title>
<polygon fill="#fb8072" stroke="#000000" points="747.5861,-252 564.4139,-252 564.4139,-216 747.5861,-216 747.5861,-252"/>
<text text-anchor="middle" x="656" y="-229.8" font-family="Times,serif" font-size="14.00" fill="#000000">TeamListSidenavComponent </text>
</g>
<!-- TeamModule&#45;&gt;TeamListSidenavComponent  -->
<g id="edge10" class="edge">
<title>TeamModule&#45;&gt;TeamListSidenavComponent </title>
<path fill="none" stroke="#000000" stroke-dasharray="5,2" d="M656,-187.1061C656,-187.1061 656,-205.991 656,-205.991"/>
<polygon fill="#000000" stroke="#000000" points="652.5001,-205.9909 656,-215.991 659.5001,-205.991 652.5001,-205.9909"/>
</g>
<!-- CoreModule -->
<g id="node5" class="node">
<title>CoreModule</title>
<polygon fill="#8dd3c7" stroke="#000000" points="826.2619,-122 823.2619,-126 802.2619,-126 799.2619,-122 739.7381,-122 739.7381,-86 826.2619,-86 826.2619,-122"/>
<text text-anchor="middle" x="783" y="-99.8" font-family="Times,serif" font-size="14.00" fill="#000000">CoreModule</text>
</g>
<!-- CoreModule&#45;&gt;TeamModule -->
<g id="edge4" class="edge">
<title>CoreModule&#45;&gt;TeamModule</title>
<path fill="none" stroke="#000000" d="M743.706,-122.0091C743.706,-138.0494 743.706,-159 743.706,-159 743.706,-159 711.9079,-159 711.9079,-159"/>
<polygon fill="#000000" stroke="#000000" points="711.908,-155.5001 701.9079,-159 711.9079,-162.5001 711.908,-155.5001"/>
</g>
<!-- GTDatatableModule -->
<g id="node6" class="node">
<title>GTDatatableModule</title>
<polygon fill="#8dd3c7" stroke="#000000" points="721.8459,-122 718.8459,-126 697.8459,-126 694.8459,-122 590.1541,-122 590.1541,-86 721.8459,-86 721.8459,-122"/>
<text text-anchor="middle" x="656" y="-99.8" font-family="Times,serif" font-size="14.00" fill="#000000">GTDatatableModule</text>
</g>
<!-- GTDatatableModule&#45;&gt;TeamModule -->
<g id="edge5" class="edge">
<title>GTDatatableModule&#45;&gt;TeamModule</title>
<path fill="none" stroke="#000000" d="M656,-122.1061C656,-122.1061 656,-140.991 656,-140.991"/>
<polygon fill="#000000" stroke="#000000" points="652.5001,-140.9909 656,-150.991 659.5001,-140.991 652.5001,-140.9909"/>
</g>
<!-- GTFormsModule -->
<g id="node7" class="node">
<title>GTFormsModule</title>
<polygon fill="#8dd3c7" stroke="#000000" points="571.9874,-122 568.9874,-126 547.9874,-126 544.9874,-122 458.0126,-122 458.0126,-86 571.9874,-86 571.9874,-122"/>
<text text-anchor="middle" x="515" y="-99.8" font-family="Times,serif" font-size="14.00" fill="#000000">GTFormsModule</text>
</g>
<!-- GTFormsModule&#45;&gt;TeamModule -->
<g id="edge6" class="edge">
<title>GTFormsModule&#45;&gt;TeamModule</title>
<path fill="none" stroke="#000000" d="M568.1005,-122.0091C568.1005,-138.0494 568.1005,-159 568.1005,-159 568.1005,-159 600.248,-159 600.248,-159"/>
<polygon fill="#000000" stroke="#000000" points="600.2481,-162.5001 610.248,-159 600.248,-155.5001 600.2481,-162.5001"/>
</g>
<!-- GTNotificationModule -->
<g id="node8" class="node">
<title>GTNotificationModule</title>
<polygon fill="#8dd3c7" stroke="#000000" points="439.8585,-122 436.8585,-126 415.8585,-126 412.8585,-122 294.1415,-122 294.1415,-86 439.8585,-86 439.8585,-122"/>
<text text-anchor="middle" x="367" y="-99.8" font-family="Times,serif" font-size="14.00" fill="#000000">GTNotificationModule</text>
</g>
<!-- GTNotificationModule&#45;&gt;TeamModule -->
<g id="edge7" class="edge">
<title>GTNotificationModule&#45;&gt;TeamModule</title>
<path fill="none" stroke="#000000" d="M367,-122.2667C367,-140.5552 367,-166 367,-166 367,-166 600.2071,-166 600.2071,-166"/>
<polygon fill="#000000" stroke="#000000" points="600.2071,-169.5001 610.2071,-166 600.2071,-162.5001 600.2071,-169.5001"/>
</g>
<!-- SharedModule -->
<g id="node9" class="node">
<title>SharedModule</title>
<polygon fill="#8dd3c7" stroke="#000000" points="276.4231,-122 273.4231,-126 252.4231,-126 249.4231,-122 177.5769,-122 177.5769,-86 276.4231,-86 276.4231,-122"/>
<text text-anchor="middle" x="227" y="-99.8" font-family="Times,serif" font-size="14.00" fill="#000000">SharedModule</text>
</g>
<!-- SharedModule&#45;&gt;TeamModule -->
<g id="edge8" class="edge">
<title>SharedModule&#45;&gt;TeamModule</title>
<path fill="none" stroke="#000000" d="M227,-122.1289C227,-142.5724 227,-173 227,-173 227,-173 600.0895,-173 600.0895,-173"/>
<polygon fill="#000000" stroke="#000000" points="600.0895,-176.5001 610.0895,-173 600.0895,-169.5001 600.0895,-176.5001"/>
</g>
<!-- TeamRoutingModule -->
<g id="node10" class="node">
<title>TeamRoutingModule</title>
<polygon fill="#8dd3c7" stroke="#000000" points="160.0408,-122 157.0408,-126 136.0408,-126 133.0408,-122 23.9592,-122 23.9592,-86 160.0408,-86 160.0408,-122"/>
<text text-anchor="middle" x="92" y="-99.8" font-family="Times,serif" font-size="14.00" fill="#000000">TeamRoutingModule</text>
</g>
<!-- TeamRoutingModule&#45;&gt;TeamModule -->
<g id="edge9" class="edge">
<title>TeamRoutingModule&#45;&gt;TeamModule</title>
<path fill="none" stroke="#000000" d="M92,-122.0109C92,-144.4852 92,-180 92,-180 92,-180 599.8455,-180 599.8455,-180"/>
<polygon fill="#000000" stroke="#000000" points="599.8455,-183.5001 609.8455,-180 599.8455,-176.5001 599.8455,-183.5001"/>
</g>
</g>
</svg>
