<?xml version="1.0" encoding="UTF-8" standalone="no"?>
<!DOCTYPE svg PUBLIC "-//W3C//DTD SVG 1.1//EN"
 "http://www.w3.org/Graphics/SVG/1.1/DTD/svg11.dtd">
<!-- Generated by graphviz version 2.40.1 (20161225.0304)
 -->
<!-- Title: dependencies Pages: 1 -->
<svg width="1738pt" height="284pt"
 viewBox="0.00 0.00 1738.00 284.00" xmlns="http://www.w3.org/2000/svg" xmlns:xlink="http://www.w3.org/1999/xlink">
<g id="graph0" class="graph" transform="scale(1 1) rotate(0) translate(4 280)">
<title>dependencies</title>
<polygon fill="#ffffff" stroke="transparent" points="-4,4 -4,-280 1734,-280 1734,4 -4,4"/>
<text text-anchor="start" x="844.0091" y="-42.4" font-family="sans-serif" font-weight="bold" font-size="14.00" fill="#000000">Legend</text>
<polygon fill="#ffffb3" stroke="transparent" points="631,-10 631,-30 651,-30 651,-10 631,-10"/>
<text text-anchor="start" x="654.629" y="-15.4" font-family="sans-serif" font-size="14.00" fill="#000000"> &#160;Declarations</text>
<polygon fill="#8dd3c7" stroke="transparent" points="744,-10 744,-30 764,-30 764,-10 744,-10"/>
<text text-anchor="start" x="767.7251" y="-15.4" font-family="sans-serif" font-size="14.00" fill="#000000"> &#160;Module</text>
<polygon fill="#80b1d3" stroke="transparent" points="830,-10 830,-30 850,-30 850,-10 830,-10"/>
<text text-anchor="start" x="853.7812" y="-15.4" font-family="sans-serif" font-size="14.00" fill="#000000"> &#160;Bootstrap</text>
<polygon fill="#fdb462" stroke="transparent" points="927,-10 927,-30 947,-30 947,-10 927,-10"/>
<text text-anchor="start" x="950.6732" y="-15.4" font-family="sans-serif" font-size="14.00" fill="#000000"> &#160;Providers</text>
<polygon fill="#fb8072" stroke="transparent" points="1023,-10 1023,-30 1043,-30 1043,-10 1023,-10"/>
<text text-anchor="start" x="1046.7258" y="-15.4" font-family="sans-serif" font-size="14.00" fill="#000000"> &#160;Exports</text>
<g id="clust1" class="cluster">
<title>cluster_HomeModule</title>
<polygon fill="none" stroke="#000000" stroke-dasharray="1,5" points="8,-70 8,-268 1722,-268 1722,-70 8,-70"/>
</g>
<g id="clust2" class="cluster">
<title>cluster_HomeModule_declarations</title>
<polygon fill="none" stroke="#000000" points="679,-78 679,-130 1714,-130 1714,-78 679,-78"/>
</g>
<g id="clust9" class="cluster">
<title>cluster_HomeModule_imports</title>
<polygon fill="none" stroke="#000000" points="16,-78 16,-130 671,-130 671,-78 16,-78"/>
</g>
<g id="clust10" class="cluster">
<title>cluster_HomeModule_exports</title>
<polygon fill="none" stroke="#000000" points="613,-208 613,-260 793,-260 793,-208 613,-208"/>
</g>
<!-- DueSoonTasksComponent -->
<g id="node1" class="node">
<title>DueSoonTasksComponent</title>
<polygon fill="#ffffb3" stroke="#000000" points="1706.0926,-122 1539.9074,-122 1539.9074,-86 1706.0926,-86 1706.0926,-122"/>
<text text-anchor="middle" x="1623" y="-99.8" font-family="Times,serif" font-size="14.00" fill="#000000">DueSoonTasksComponent</text>
</g>
<!-- HomeModule -->
<g id="node7" class="node">
<title>HomeModule</title>
<polygon fill="#8dd3c7" stroke="#000000" points="749.7619,-187 746.7619,-191 725.7619,-191 722.7619,-187 656.2381,-187 656.2381,-151 749.7619,-151 749.7619,-187"/>
<text text-anchor="middle" x="703" y="-164.8" font-family="Times,serif" font-size="14.00" fill="#000000">HomeModule</text>
</g>
<!-- DueSoonTasksComponent&#45;&gt;HomeModule -->
<g id="edge1" class="edge">
<title>DueSoonTasksComponent&#45;&gt;HomeModule</title>
<path fill="none" stroke="#000000" d="M1623,-122.2479C1623,-145.0179 1623,-181 1623,-181 1623,-181 759.8878,-181 759.8878,-181"/>
<polygon fill="#000000" stroke="#000000" points="759.8878,-177.5001 749.8878,-181 759.8877,-184.5001 759.8878,-177.5001"/>
</g>
<!-- HomeComponent -->
<g id="node2" class="node">
<title>HomeComponent</title>
<polygon fill="#ffffb3" stroke="#000000" points="1521.5451,-122 1406.4549,-122 1406.4549,-86 1521.5451,-86 1521.5451,-122"/>
<text text-anchor="middle" x="1464" y="-99.8" font-family="Times,serif" font-size="14.00" fill="#000000">HomeComponent</text>
</g>
<!-- HomeComponent&#45;&gt;HomeModule -->
<g id="edge2" class="edge">
<title>HomeComponent&#45;&gt;HomeModule</title>
<path fill="none" stroke="#000000" d="M1464,-122.2843C1464,-143.3211 1464,-175 1464,-175 1464,-175 760.0297,-175 760.0297,-175"/>
<polygon fill="#000000" stroke="#000000" points="760.0297,-171.5001 750.0297,-175 760.0296,-178.5001 760.0297,-171.5001"/>
</g>
<!-- InvitationComponent -->
<g id="node3" class="node">
<title>InvitationComponent</title>
<polygon fill="#ffffb3" stroke="#000000" points="1387.7702,-122 1252.2298,-122 1252.2298,-86 1387.7702,-86 1387.7702,-122"/>
<text text-anchor="middle" x="1320" y="-99.8" font-family="Times,serif" font-size="14.00" fill="#000000">InvitationComponent</text>
</g>
<!-- InvitationComponent&#45;&gt;HomeModule -->
<g id="edge3" class="edge">
<title>InvitationComponent&#45;&gt;HomeModule</title>
<path fill="none" stroke="#000000" d="M1320,-122.1061C1320,-141.3391 1320,-169 1320,-169 1320,-169 759.8817,-169 759.8817,-169"/>
<polygon fill="#000000" stroke="#000000" points="759.8817,-165.5001 749.8817,-169 759.8817,-172.5001 759.8817,-165.5001"/>
</g>
<!-- ProjectsHomeComponent -->
<g id="node4" class="node">
<title>ProjectsHomeComponent</title>
<polygon fill="#ffffb3" stroke="#000000" points="1234.1428,-122 1073.8572,-122 1073.8572,-86 1234.1428,-86 1234.1428,-122"/>
<text text-anchor="middle" x="1154" y="-99.8" font-family="Times,serif" font-size="14.00" fill="#000000">ProjectsHomeComponent</text>
</g>
<!-- ProjectsHomeComponent&#45;&gt;HomeModule -->
<g id="edge4" class="edge">
<title>ProjectsHomeComponent&#45;&gt;HomeModule</title>
<path fill="none" stroke="#000000" d="M1154,-122.0225C1154,-139.3734 1154,-163 1154,-163 1154,-163 759.9886,-163 759.9886,-163"/>
<polygon fill="#000000" stroke="#000000" points="759.9886,-159.5001 749.9886,-163 759.9886,-166.5001 759.9886,-159.5001"/>
</g>
<!-- RecentTasksComponent -->
<g id="node5" class="node">
<title>RecentTasksComponent</title>
<polygon fill="#ffffb3" stroke="#000000" points="1055.3599,-122 902.6401,-122 902.6401,-86 1055.3599,-86 1055.3599,-122"/>
<text text-anchor="middle" x="979" y="-99.8" font-family="Times,serif" font-size="14.00" fill="#000000">RecentTasksComponent</text>
</g>
<!-- RecentTasksComponent&#45;&gt;HomeModule -->
<g id="edge5" class="edge">
<title>RecentTasksComponent&#45;&gt;HomeModule</title>
<path fill="none" stroke="#000000" d="M979,-122.2396C979,-137.5706 979,-157 979,-157 979,-157 759.8196,-157 759.8196,-157"/>
<polygon fill="#000000" stroke="#000000" points="759.8197,-153.5001 749.8196,-157 759.8196,-160.5001 759.8197,-153.5001"/>
</g>
<!-- TasksPerStatusChartComponent -->
<g id="node6" class="node">
<title>TasksPerStatusChartComponent</title>
<polygon fill="#ffffb3" stroke="#000000" points="884.972,-122 687.028,-122 687.028,-86 884.972,-86 884.972,-122"/>
<text text-anchor="middle" x="786" y="-99.8" font-family="Times,serif" font-size="14.00" fill="#000000">TasksPerStatusChartComponent</text>
</g>
<!-- TasksPerStatusChartComponent&#45;&gt;HomeModule -->
<g id="edge6" class="edge">
<title>TasksPerStatusChartComponent&#45;&gt;HomeModule</title>
<path fill="none" stroke="#000000" d="M718.4474,-122.1061C718.4474,-122.1061 718.4474,-140.991 718.4474,-140.991"/>
<polygon fill="#000000" stroke="#000000" points="714.9475,-140.9909 718.4474,-150.991 721.9475,-140.991 714.9475,-140.9909"/>
</g>
<!-- ProjectsHomeComponent  -->
<g id="node14" class="node">
<title>ProjectsHomeComponent </title>
<polygon fill="#fb8072" stroke="#000000" points="785.1425,-252 620.8575,-252 620.8575,-216 785.1425,-216 785.1425,-252"/>
<text text-anchor="middle" x="703" y="-229.8" font-family="Times,serif" font-size="14.00" fill="#000000">ProjectsHomeComponent </text>
</g>
<!-- HomeModule&#45;&gt;ProjectsHomeComponent  -->
<g id="edge13" class="edge">
<title>HomeModule&#45;&gt;ProjectsHomeComponent </title>
<path fill="none" stroke="#000000" stroke-dasharray="5,2" d="M703,-187.1061C703,-187.1061 703,-205.991 703,-205.991"/>
<polygon fill="#000000" stroke="#000000" points="699.5001,-205.9909 703,-215.991 706.5001,-205.991 699.5001,-205.9909"/>
</g>
<!-- CoreModule -->
<g id="node8" class="node">
<title>CoreModule</title>
<polygon fill="#8dd3c7" stroke="#000000" points="663.2619,-122 660.2619,-126 639.2619,-126 636.2619,-122 576.7381,-122 576.7381,-86 663.2619,-86 663.2619,-122"/>
<text text-anchor="middle" x="620" y="-99.8" font-family="Times,serif" font-size="14.00" fill="#000000">CoreModule</text>
</g>
<!-- CoreModule&#45;&gt;HomeModule -->
<g id="edge7" class="edge">
<title>CoreModule&#45;&gt;HomeModule</title>
<path fill="none" stroke="#000000" d="M659.75,-122.1061C659.75,-122.1061 659.75,-140.991 659.75,-140.991"/>
<polygon fill="#000000" stroke="#000000" points="656.2501,-140.9909 659.75,-150.991 663.2501,-140.991 656.2501,-140.9909"/>
</g>
<!-- InboxModule -->
<g id="node9" class="node">
<title>InboxModule</title>
<polygon fill="#8dd3c7" stroke="#000000" points="559.2106,-122 556.2106,-126 535.2106,-126 532.2106,-122 466.7894,-122 466.7894,-86 559.2106,-86 559.2106,-122"/>
<text text-anchor="middle" x="513" y="-99.8" font-family="Times,serif" font-size="14.00" fill="#000000">InboxModule</text>
</g>
<!-- InboxModule&#45;&gt;HomeModule -->
<g id="edge8" class="edge">
<title>InboxModule&#45;&gt;HomeModule</title>
<path fill="none" stroke="#000000" d="M513,-122.2396C513,-137.5706 513,-157 513,-157 513,-157 646.0337,-157 646.0337,-157"/>
<polygon fill="#000000" stroke="#000000" points="646.0337,-160.5001 656.0337,-157 646.0337,-153.5001 646.0337,-160.5001"/>
</g>
<!-- ProjectModule -->
<g id="node10" class="node">
<title>ProjectModule</title>
<polygon fill="#8dd3c7" stroke="#000000" points="448.7036,-122 445.7036,-126 424.7036,-126 421.7036,-122 349.2964,-122 349.2964,-86 448.7036,-86 448.7036,-122"/>
<text text-anchor="middle" x="399" y="-99.8" font-family="Times,serif" font-size="14.00" fill="#000000">ProjectModule</text>
</g>
<!-- ProjectModule&#45;&gt;HomeModule -->
<g id="edge9" class="edge">
<title>ProjectModule&#45;&gt;HomeModule</title>
<path fill="none" stroke="#000000" d="M399,-122.0225C399,-139.3734 399,-163 399,-163 399,-163 646.1662,-163 646.1662,-163"/>
<polygon fill="#000000" stroke="#000000" points="646.1663,-166.5001 656.1662,-163 646.1662,-159.5001 646.1663,-166.5001"/>
</g>
<!-- SharedModule -->
<g id="node11" class="node">
<title>SharedModule</title>
<polygon fill="#8dd3c7" stroke="#000000" points="331.4231,-122 328.4231,-126 307.4231,-126 304.4231,-122 232.5769,-122 232.5769,-86 331.4231,-86 331.4231,-122"/>
<text text-anchor="middle" x="282" y="-99.8" font-family="Times,serif" font-size="14.00" fill="#000000">SharedModule</text>
</g>
<!-- SharedModule&#45;&gt;HomeModule -->
<g id="edge10" class="edge">
<title>SharedModule&#45;&gt;HomeModule</title>
<path fill="none" stroke="#000000" d="M282,-122.1061C282,-141.3391 282,-169 282,-169 282,-169 645.9314,-169 645.9314,-169"/>
<polygon fill="#000000" stroke="#000000" points="645.9314,-172.5001 655.9314,-169 645.9314,-165.5001 645.9314,-172.5001"/>
</g>
<!-- TaskModule -->
<g id="node12" class="node">
<title>TaskModule</title>
<polygon fill="#8dd3c7" stroke="#000000" points="214.2619,-122 211.2619,-126 190.2619,-126 187.2619,-122 127.7381,-122 127.7381,-86 214.2619,-86 214.2619,-122"/>
<text text-anchor="middle" x="171" y="-99.8" font-family="Times,serif" font-size="14.00" fill="#000000">TaskModule</text>
</g>
<!-- TaskModule&#45;&gt;HomeModule -->
<g id="edge11" class="edge">
<title>TaskModule&#45;&gt;HomeModule</title>
<path fill="none" stroke="#000000" d="M171,-122.2843C171,-143.3211 171,-175 171,-175 171,-175 645.7885,-175 645.7885,-175"/>
<polygon fill="#000000" stroke="#000000" points="645.7886,-178.5001 655.7885,-175 645.7885,-171.5001 645.7886,-178.5001"/>
</g>
<!-- UserModule -->
<g id="node13" class="node">
<title>UserModule</title>
<polygon fill="#8dd3c7" stroke="#000000" points="109.9762,-122 106.9762,-126 85.9762,-126 82.9762,-122 24.0238,-122 24.0238,-86 109.9762,-86 109.9762,-122"/>
<text text-anchor="middle" x="67" y="-99.8" font-family="Times,serif" font-size="14.00" fill="#000000">UserModule</text>
</g>
<!-- UserModule&#45;&gt;HomeModule -->
<g id="edge12" class="edge">
<title>UserModule&#45;&gt;HomeModule</title>
<path fill="none" stroke="#000000" d="M67,-122.2479C67,-145.0179 67,-181 67,-181 67,-181 646.2334,-181 646.2334,-181"/>
<polygon fill="#000000" stroke="#000000" points="646.2334,-184.5001 656.2334,-181 646.2334,-177.5001 646.2334,-184.5001"/>
</g>
</g>
</svg>
