<?xml version="1.0" encoding="UTF-8" standalone="no"?>
<!DOCTYPE svg PUBLIC "-//W3C//DTD SVG 1.1//EN"
 "http://www.w3.org/Graphics/SVG/1.1/DTD/svg11.dtd">
<!-- Generated by graphviz version 2.40.1 (20161225.0304)
 -->
<!-- Title: dependencies Pages: 1 -->
<svg width="1082pt" height="284pt"
 viewBox="0.00 0.00 1082.00 284.00" xmlns="http://www.w3.org/2000/svg" xmlns:xlink="http://www.w3.org/1999/xlink">
<g id="graph0" class="graph" transform="scale(1 1) rotate(0) translate(4 280)">
<title>dependencies</title>
<polygon fill="#ffffff" stroke="transparent" points="-4,4 -4,-280 1078,-280 1078,4 -4,4"/>
<text text-anchor="start" x="516.0091" y="-42.4" font-family="sans-serif" font-weight="bold" font-size="14.00" fill="#000000">Legend</text>
<polygon fill="#ffffb3" stroke="transparent" points="303,-10 303,-30 323,-30 323,-10 303,-10"/>
<text text-anchor="start" x="326.629" y="-15.4" font-family="sans-serif" font-size="14.00" fill="#000000"> &#160;Declarations</text>
<polygon fill="#8dd3c7" stroke="transparent" points="416,-10 416,-30 436,-30 436,-10 416,-10"/>
<text text-anchor="start" x="439.7251" y="-15.4" font-family="sans-serif" font-size="14.00" fill="#000000"> &#160;Module</text>
<polygon fill="#80b1d3" stroke="transparent" points="502,-10 502,-30 522,-30 522,-10 502,-10"/>
<text text-anchor="start" x="525.7812" y="-15.4" font-family="sans-serif" font-size="14.00" fill="#000000"> &#160;Bootstrap</text>
<polygon fill="#fdb462" stroke="transparent" points="599,-10 599,-30 619,-30 619,-10 599,-10"/>
<text text-anchor="start" x="622.6732" y="-15.4" font-family="sans-serif" font-size="14.00" fill="#000000"> &#160;Providers</text>
<polygon fill="#fb8072" stroke="transparent" points="695,-10 695,-30 715,-30 715,-10 695,-10"/>
<text text-anchor="start" x="718.7258" y="-15.4" font-family="sans-serif" font-size="14.00" fill="#000000"> &#160;Exports</text>
<g id="clust1" class="cluster">
<title>cluster_SharedModule</title>
<polygon fill="none" stroke="#000000" stroke-dasharray="1,5" points="8,-70 8,-268 1066,-268 1066,-70 8,-70"/>
</g>
<g id="clust2" class="cluster">
<title>cluster_SharedModule_declarations</title>
<polygon fill="none" stroke="#000000" points="682,-78 682,-130 989,-130 989,-78 682,-78"/>
</g>
<g id="clust5" class="cluster">
<title>cluster_SharedModule_imports</title>
<polygon fill="none" stroke="#000000" points="129,-78 129,-130 674,-130 674,-78 129,-78"/>
</g>
<g id="clust6" class="cluster">
<title>cluster_SharedModule_exports</title>
<polygon fill="none" stroke="#000000" points="16,-208 16,-260 1058,-260 1058,-208 16,-208"/>
</g>
<!-- AdminOnlyDirective -->
<g id="node1" class="node">
<title>AdminOnlyDirective</title>
<polygon fill="#ffffb3" stroke="#000000" points="981.4678,-122 846.5322,-122 846.5322,-86 981.4678,-86 981.4678,-122"/>
<text text-anchor="middle" x="914" y="-99.8" font-family="Times,serif" font-size="14.00" fill="#000000">AdminOnlyDirective</text>
</g>
<!-- SharedModule -->
<g id="node3" class="node">
<title>SharedModule</title>
<polygon fill="#8dd3c7" stroke="#000000" points="580.4231,-187 577.4231,-191 556.4231,-191 553.4231,-187 481.5769,-187 481.5769,-151 580.4231,-151 580.4231,-187"/>
<text text-anchor="middle" x="531" y="-164.8" font-family="Times,serif" font-size="14.00" fill="#000000">SharedModule</text>
</g>
<!-- AdminOnlyDirective&#45;&gt;SharedModule -->
<g id="edge1" class="edge">
<title>AdminOnlyDirective&#45;&gt;SharedModule</title>
<path fill="none" stroke="#000000" d="M870.0945,-122.0225C870.0945,-139.3734 870.0945,-163 870.0945,-163 870.0945,-163 590.3073,-163 590.3073,-163"/>
<polygon fill="#000000" stroke="#000000" points="590.3073,-159.5001 580.3073,-163 590.3072,-166.5001 590.3073,-159.5001"/>
</g>
<!-- LoggedOnlyDirective -->
<g id="node2" class="node">
<title>LoggedOnlyDirective</title>
<polygon fill="#ffffb3" stroke="#000000" points="828.3473,-122 689.6527,-122 689.6527,-86 828.3473,-86 828.3473,-122"/>
<text text-anchor="middle" x="759" y="-99.8" font-family="Times,serif" font-size="14.00" fill="#000000">LoggedOnlyDirective</text>
</g>
<!-- LoggedOnlyDirective&#45;&gt;SharedModule -->
<g id="edge2" class="edge">
<title>LoggedOnlyDirective&#45;&gt;SharedModule</title>
<path fill="none" stroke="#000000" d="M715.1601,-122.2396C715.1601,-137.5706 715.1601,-157 715.1601,-157 715.1601,-157 590.3515,-157 590.3515,-157"/>
<polygon fill="#000000" stroke="#000000" points="590.3515,-153.5001 580.3515,-157 590.3515,-160.5001 590.3515,-153.5001"/>
</g>
<!-- AdminOnlyDirective  -->
<g id="node8" class="node">
<title>AdminOnlyDirective </title>
<polygon fill="#fb8072" stroke="#000000" points="1050.4686,-252 911.5314,-252 911.5314,-216 1050.4686,-216 1050.4686,-252"/>
<text text-anchor="middle" x="981" y="-229.8" font-family="Times,serif" font-size="14.00" fill="#000000">AdminOnlyDirective </text>
</g>
<!-- SharedModule&#45;&gt;AdminOnlyDirective  -->
<g id="edge7" class="edge">
<title>SharedModule&#45;&gt;AdminOnlyDirective </title>
<path fill="none" stroke="#000000" stroke-dasharray="5,2" d="M580.3098,-169C690.4045,-169 946.625,-169 946.625,-169 946.625,-169 946.625,-205.8939 946.625,-205.8939"/>
<polygon fill="#000000" stroke="#000000" points="943.1251,-205.8938 946.625,-215.8939 950.1251,-205.8939 943.1251,-205.8938"/>
</g>
<!-- GTDatatableModule  -->
<g id="node9" class="node">
<title>GTDatatableModule </title>
<polygon fill="#fb8072" stroke="#000000" points="893.8462,-252 758.1538,-252 758.1538,-216 893.8462,-216 893.8462,-252"/>
<text text-anchor="middle" x="826" y="-229.8" font-family="Times,serif" font-size="14.00" fill="#000000">GTDatatableModule </text>
</g>
<!-- SharedModule&#45;&gt;GTDatatableModule  -->
<g id="edge8" class="edge">
<title>SharedModule&#45;&gt;GTDatatableModule </title>
<path fill="none" stroke="#000000" stroke-dasharray="5,2" d="M580.3508,-175C656.3545,-175 793.3754,-175 793.3754,-175 793.3754,-175 793.3754,-205.9775 793.3754,-205.9775"/>
<polygon fill="#000000" stroke="#000000" points="789.8754,-205.9774 793.3754,-215.9775 796.8754,-205.9775 789.8754,-205.9774"/>
</g>
<!-- GTFormsModule  -->
<g id="node10" class="node">
<title>GTFormsModule </title>
<polygon fill="#fb8072" stroke="#000000" points="740.9884,-252 623.0116,-252 623.0116,-216 740.9884,-216 740.9884,-252"/>
<text text-anchor="middle" x="682" y="-229.8" font-family="Times,serif" font-size="14.00" fill="#000000">GTFormsModule </text>
</g>
<!-- SharedModule&#45;&gt;GTFormsModule  -->
<g id="edge9" class="edge">
<title>SharedModule&#45;&gt;GTFormsModule </title>
<path fill="none" stroke="#000000" stroke-dasharray="5,2" d="M580.4916,-181C611.1017,-181 644.5896,-181 644.5896,-181 644.5896,-181 644.5896,-205.7604 644.5896,-205.7604"/>
<polygon fill="#000000" stroke="#000000" points="641.0897,-205.7604 644.5896,-215.7604 648.0897,-205.7604 641.0897,-205.7604"/>
</g>
<!-- GTNotificationModule  -->
<g id="node11" class="node">
<title>GTNotificationModule </title>
<polygon fill="#fb8072" stroke="#000000" points="605.8588,-252 456.1412,-252 456.1412,-216 605.8588,-216 605.8588,-252"/>
<text text-anchor="middle" x="531" y="-229.8" font-family="Times,serif" font-size="14.00" fill="#000000">GTNotificationModule </text>
</g>
<!-- SharedModule&#45;&gt;GTNotificationModule  -->
<g id="edge10" class="edge">
<title>SharedModule&#45;&gt;GTNotificationModule </title>
<path fill="none" stroke="#000000" stroke-dasharray="5,2" d="M531,-187.1061C531,-187.1061 531,-205.991 531,-205.991"/>
<polygon fill="#000000" stroke="#000000" points="527.5001,-205.9909 531,-215.991 534.5001,-205.991 527.5001,-205.9909"/>
</g>
<!-- GTToolbarModule  -->
<g id="node12" class="node">
<title>GTToolbarModule </title>
<polygon fill="#fb8072" stroke="#000000" points="438.0274,-252 311.9726,-252 311.9726,-216 438.0274,-216 438.0274,-252"/>
<text text-anchor="middle" x="375" y="-229.8" font-family="Times,serif" font-size="14.00" fill="#000000">GTToolbarModule </text>
</g>
<!-- SharedModule&#45;&gt;GTToolbarModule  -->
<g id="edge11" class="edge">
<title>SharedModule&#45;&gt;GTToolbarModule </title>
<path fill="none" stroke="#000000" stroke-dasharray="5,2" d="M481.6718,-181C452.0291,-181 420.01,-181 420.01,-181 420.01,-181 420.01,-205.7604 420.01,-205.7604"/>
<polygon fill="#000000" stroke="#000000" points="416.5101,-205.7604 420.01,-215.7604 423.5101,-205.7604 416.5101,-205.7604"/>
</g>
<!-- LoggedOnlyDirective  -->
<g id="node13" class="node">
<title>LoggedOnlyDirective </title>
<polygon fill="#fb8072" stroke="#000000" points="294.3476,-252 151.6524,-252 151.6524,-216 294.3476,-216 294.3476,-252"/>
<text text-anchor="middle" x="223" y="-229.8" font-family="Times,serif" font-size="14.00" fill="#000000">LoggedOnlyDirective </text>
</g>
<!-- SharedModule&#45;&gt;LoggedOnlyDirective  -->
<g id="edge12" class="edge">
<title>SharedModule&#45;&gt;LoggedOnlyDirective </title>
<path fill="none" stroke="#000000" stroke-dasharray="5,2" d="M481.6097,-175C407.9689,-175 277.955,-175 277.955,-175 277.955,-175 277.955,-205.9775 277.955,-205.9775"/>
<polygon fill="#000000" stroke="#000000" points="274.455,-205.9774 277.955,-215.9775 281.455,-205.9775 274.455,-205.9774"/>
</g>
<!-- MaterialModule  -->
<g id="node14" class="node">
<title>MaterialModule </title>
<polygon fill="#fb8072" stroke="#000000" points="134.4716,-252 23.5284,-252 23.5284,-216 134.4716,-216 134.4716,-252"/>
<text text-anchor="middle" x="79" y="-229.8" font-family="Times,serif" font-size="14.00" fill="#000000">MaterialModule </text>
</g>
<!-- SharedModule&#45;&gt;MaterialModule  -->
<g id="edge13" class="edge">
<title>SharedModule&#45;&gt;MaterialModule </title>
<path fill="none" stroke="#000000" stroke-dasharray="5,2" d="M481.7676,-169C364.6192,-169 79,-169 79,-169 79,-169 79,-205.8939 79,-205.8939"/>
<polygon fill="#000000" stroke="#000000" points="75.5001,-205.8938 79,-215.8939 82.5001,-205.8939 75.5001,-205.8938"/>
</g>
<!-- GTDatatableModule -->
<g id="node4" class="node">
<title>GTDatatableModule</title>
<polygon fill="#8dd3c7" stroke="#000000" points="665.8459,-122 662.8459,-126 641.8459,-126 638.8459,-122 534.1541,-122 534.1541,-86 665.8459,-86 665.8459,-122"/>
<text text-anchor="middle" x="600" y="-99.8" font-family="Times,serif" font-size="14.00" fill="#000000">GTDatatableModule</text>
</g>
<!-- GTDatatableModule&#45;&gt;SharedModule -->
<g id="edge3" class="edge">
<title>GTDatatableModule&#45;&gt;SharedModule</title>
<path fill="none" stroke="#000000" d="M557.1441,-122.1061C557.1441,-122.1061 557.1441,-140.991 557.1441,-140.991"/>
<polygon fill="#000000" stroke="#000000" points="553.6442,-140.9909 557.1441,-150.991 560.6442,-140.991 553.6442,-140.9909"/>
</g>
<!-- GTFormsModule -->
<g id="node5" class="node">
<title>GTFormsModule</title>
<polygon fill="#8dd3c7" stroke="#000000" points="515.9874,-122 512.9874,-126 491.9874,-126 488.9874,-122 402.0126,-122 402.0126,-86 515.9874,-86 515.9874,-122"/>
<text text-anchor="middle" x="459" y="-99.8" font-family="Times,serif" font-size="14.00" fill="#000000">GTFormsModule</text>
</g>
<!-- GTFormsModule&#45;&gt;SharedModule -->
<g id="edge4" class="edge">
<title>GTFormsModule&#45;&gt;SharedModule</title>
<path fill="none" stroke="#000000" d="M498.8913,-122.1061C498.8913,-122.1061 498.8913,-140.991 498.8913,-140.991"/>
<polygon fill="#000000" stroke="#000000" points="495.3914,-140.9909 498.8913,-150.991 502.3914,-140.991 495.3914,-140.9909"/>
</g>
<!-- GTToolbarModule -->
<g id="node6" class="node">
<title>GTToolbarModule</title>
<polygon fill="#8dd3c7" stroke="#000000" points="384.0283,-122 381.0283,-126 360.0283,-126 357.0283,-122 261.9717,-122 261.9717,-86 384.0283,-86 384.0283,-122"/>
<text text-anchor="middle" x="323" y="-99.8" font-family="Times,serif" font-size="14.00" fill="#000000">GTToolbarModule</text>
</g>
<!-- GTToolbarModule&#45;&gt;SharedModule -->
<g id="edge5" class="edge">
<title>GTToolbarModule&#45;&gt;SharedModule</title>
<path fill="none" stroke="#000000" d="M348.125,-122.2396C348.125,-137.5706 348.125,-157 348.125,-157 348.125,-157 471.5114,-157 471.5114,-157"/>
<polygon fill="#000000" stroke="#000000" points="471.5114,-160.5001 481.5114,-157 471.5114,-153.5001 471.5114,-160.5001"/>
</g>
<!-- MaterialModule -->
<g id="node7" class="node">
<title>MaterialModule</title>
<polygon fill="#8dd3c7" stroke="#000000" points="243.4706,-122 240.4706,-126 219.4706,-126 216.4706,-122 136.5294,-122 136.5294,-86 243.4706,-86 243.4706,-122"/>
<text text-anchor="middle" x="190" y="-99.8" font-family="Times,serif" font-size="14.00" fill="#000000">MaterialModule</text>
</g>
<!-- MaterialModule&#45;&gt;SharedModule -->
<g id="edge6" class="edge">
<title>MaterialModule&#45;&gt;SharedModule</title>
<path fill="none" stroke="#000000" d="M197.6558,-122.0225C197.6558,-139.3734 197.6558,-163 197.6558,-163 197.6558,-163 471.455,-163 471.455,-163"/>
<polygon fill="#000000" stroke="#000000" points="471.455,-166.5001 481.455,-163 471.4549,-159.5001 471.455,-166.5001"/>
</g>
</g>
</svg>
