<?xml version="1.0" encoding="UTF-8" standalone="no"?>
<!DOCTYPE svg PUBLIC "-//W3C//DTD SVG 1.1//EN"
 "http://www.w3.org/Graphics/SVG/1.1/DTD/svg11.dtd">
<!-- Generated by graphviz version 2.40.1 (20161225.0304)
 -->
<!-- Title: dependencies Pages: 1 -->
<svg width="852pt" height="284pt"
 viewBox="0.00 0.00 852.00 284.00" xmlns="http://www.w3.org/2000/svg" xmlns:xlink="http://www.w3.org/1999/xlink">
<g id="graph0" class="graph" transform="scale(1 1) rotate(0) translate(4 280)">
<title>dependencies</title>
<polygon fill="#ffffff" stroke="transparent" points="-4,4 -4,-280 848,-280 848,4 -4,4"/>
<text text-anchor="start" x="401.0091" y="-42.4" font-family="sans-serif" font-weight="bold" font-size="14.00" fill="#000000">Legend</text>
<polygon fill="#ffffb3" stroke="transparent" points="188,-10 188,-30 208,-30 208,-10 188,-10"/>
<text text-anchor="start" x="211.629" y="-15.4" font-family="sans-serif" font-size="14.00" fill="#000000"> &#160;Declarations</text>
<polygon fill="#8dd3c7" stroke="transparent" points="301,-10 301,-30 321,-30 321,-10 301,-10"/>
<text text-anchor="start" x="324.7251" y="-15.4" font-family="sans-serif" font-size="14.00" fill="#000000"> &#160;Module</text>
<polygon fill="#80b1d3" stroke="transparent" points="387,-10 387,-30 407,-30 407,-10 387,-10"/>
<text text-anchor="start" x="410.7812" y="-15.4" font-family="sans-serif" font-size="14.00" fill="#000000"> &#160;Bootstrap</text>
<polygon fill="#fdb462" stroke="transparent" points="484,-10 484,-30 504,-30 504,-10 484,-10"/>
<text text-anchor="start" x="507.6732" y="-15.4" font-family="sans-serif" font-size="14.00" fill="#000000"> &#160;Providers</text>
<polygon fill="#fb8072" stroke="transparent" points="580,-10 580,-30 600,-30 600,-10 580,-10"/>
<text text-anchor="start" x="603.7258" y="-15.4" font-family="sans-serif" font-size="14.00" fill="#000000"> &#160;Exports</text>
<g id="clust1" class="cluster">
<title>cluster_UserModule</title>
<polygon fill="none" stroke="#000000" stroke-dasharray="1,5" points="8,-70 8,-268 836,-268 836,-70 8,-70"/>
</g>
<g id="clust2" class="cluster">
<title>cluster_UserModule_declarations</title>
<polygon fill="none" stroke="#000000" points="533,-78 533,-130 828,-130 828,-78 533,-78"/>
</g>
<g id="clust5" class="cluster">
<title>cluster_UserModule_imports</title>
<polygon fill="none" stroke="#000000" points="156,-78 156,-130 525,-130 525,-78 156,-78"/>
</g>
<g id="clust6" class="cluster">
<title>cluster_UserModule_exports</title>
<polygon fill="none" stroke="#000000" points="267,-208 267,-260 569,-260 569,-208 267,-208"/>
</g>
<g id="clust8" class="cluster">
<title>cluster_UserModule_providers</title>
<polygon fill="none" stroke="#000000" points="16,-78 16,-130 148,-130 148,-78 16,-78"/>
</g>
<!-- UserInfoComponent -->
<g id="node1" class="node">
<title>UserInfoComponent</title>
<polygon fill="#ffffb3" stroke="#000000" points="819.58,-122 688.42,-122 688.42,-86 819.58,-86 819.58,-122"/>
<text text-anchor="middle" x="754" y="-99.8" font-family="Times,serif" font-size="14.00" fill="#000000">UserInfoComponent</text>
</g>
<!-- UserModule -->
<g id="node3" class="node">
<title>UserModule</title>
<polygon fill="#8dd3c7" stroke="#000000" points="460.9762,-187 457.9762,-191 436.9762,-191 433.9762,-187 375.0238,-187 375.0238,-151 460.9762,-151 460.9762,-187"/>
<text text-anchor="middle" x="418" y="-164.8" font-family="Times,serif" font-size="14.00" fill="#000000">UserModule</text>
</g>
<!-- UserInfoComponent&#45;&gt;UserModule -->
<g id="edge1" class="edge">
<title>UserInfoComponent&#45;&gt;UserModule</title>
<path fill="none" stroke="#000000" d="M754,-122.2843C754,-143.3211 754,-175 754,-175 754,-175 471.2383,-175 471.2383,-175"/>
<polygon fill="#000000" stroke="#000000" points="471.2383,-171.5001 461.2383,-175 471.2382,-178.5001 471.2383,-171.5001"/>
</g>
<!-- UserListComponent -->
<g id="node2" class="node">
<title>UserListComponent</title>
<polygon fill="#ffffb3" stroke="#000000" points="670.538,-122 541.462,-122 541.462,-86 670.538,-86 670.538,-122"/>
<text text-anchor="middle" x="606" y="-99.8" font-family="Times,serif" font-size="14.00" fill="#000000">UserListComponent</text>
</g>
<!-- UserListComponent&#45;&gt;UserModule -->
<g id="edge2" class="edge">
<title>UserListComponent&#45;&gt;UserModule</title>
<path fill="none" stroke="#000000" d="M551.2607,-122.0225C551.2607,-139.3734 551.2607,-163 551.2607,-163 551.2607,-163 471.2659,-163 471.2659,-163"/>
<polygon fill="#000000" stroke="#000000" points="471.266,-159.5001 461.2659,-163 471.2659,-166.5001 471.266,-159.5001"/>
</g>
<!-- UserInfoComponent  -->
<g id="node7" class="node">
<title>UserInfoComponent </title>
<polygon fill="#fb8072" stroke="#000000" points="561.0807,-252 426.9193,-252 426.9193,-216 561.0807,-216 561.0807,-252"/>
<text text-anchor="middle" x="494" y="-229.8" font-family="Times,serif" font-size="14.00" fill="#000000">UserInfoComponent </text>
</g>
<!-- UserModule&#45;&gt;UserInfoComponent  -->
<g id="edge6" class="edge">
<title>UserModule&#45;&gt;UserInfoComponent </title>
<path fill="none" stroke="#000000" stroke-dasharray="5,2" d="M443.8491,-187.1061C443.8491,-187.1061 443.8491,-205.991 443.8491,-205.991"/>
<polygon fill="#000000" stroke="#000000" points="440.3491,-205.9909 443.8491,-215.991 447.3491,-205.991 440.3491,-205.9909"/>
</g>
<!-- UserListComponent  -->
<g id="node8" class="node">
<title>UserListComponent </title>
<polygon fill="#fb8072" stroke="#000000" points="408.5372,-252 275.4628,-252 275.4628,-216 408.5372,-216 408.5372,-252"/>
<text text-anchor="middle" x="342" y="-229.8" font-family="Times,serif" font-size="14.00" fill="#000000">UserListComponent </text>
</g>
<!-- UserModule&#45;&gt;UserListComponent  -->
<g id="edge7" class="edge">
<title>UserModule&#45;&gt;UserListComponent </title>
<path fill="none" stroke="#000000" stroke-dasharray="5,2" d="M391.7653,-187.1061C391.7653,-187.1061 391.7653,-205.991 391.7653,-205.991"/>
<polygon fill="#000000" stroke="#000000" points="388.2653,-205.9909 391.7653,-215.991 395.2653,-205.991 388.2653,-205.9909"/>
</g>
<!-- CoreModule -->
<g id="node4" class="node">
<title>CoreModule</title>
<polygon fill="#8dd3c7" stroke="#000000" points="517.2619,-122 514.2619,-126 493.2619,-126 490.2619,-122 430.7381,-122 430.7381,-86 517.2619,-86 517.2619,-122"/>
<text text-anchor="middle" x="474" y="-99.8" font-family="Times,serif" font-size="14.00" fill="#000000">CoreModule</text>
</g>
<!-- CoreModule&#45;&gt;UserModule -->
<g id="edge3" class="edge">
<title>CoreModule&#45;&gt;UserModule</title>
<path fill="none" stroke="#000000" d="M445.8037,-122.1061C445.8037,-122.1061 445.8037,-140.991 445.8037,-140.991"/>
<polygon fill="#000000" stroke="#000000" points="442.3037,-140.9909 445.8037,-150.991 449.3037,-140.991 442.3037,-140.9909"/>
</g>
<!-- SharedModule -->
<g id="node5" class="node">
<title>SharedModule</title>
<polygon fill="#8dd3c7" stroke="#000000" points="412.4231,-122 409.4231,-126 388.4231,-126 385.4231,-122 313.5769,-122 313.5769,-86 412.4231,-86 412.4231,-122"/>
<text text-anchor="middle" x="363" y="-99.8" font-family="Times,serif" font-size="14.00" fill="#000000">SharedModule</text>
</g>
<!-- SharedModule&#45;&gt;UserModule -->
<g id="edge4" class="edge">
<title>SharedModule&#45;&gt;UserModule</title>
<path fill="none" stroke="#000000" d="M393.6115,-122.1061C393.6115,-122.1061 393.6115,-140.991 393.6115,-140.991"/>
<polygon fill="#000000" stroke="#000000" points="390.1116,-140.9909 393.6115,-150.991 397.1116,-140.991 390.1116,-140.9909"/>
</g>
<!-- UserRoutingModule -->
<g id="node6" class="node">
<title>UserRoutingModule</title>
<polygon fill="#8dd3c7" stroke="#000000" points="295.594,-122 292.594,-126 271.594,-126 268.594,-122 164.406,-122 164.406,-86 295.594,-86 295.594,-122"/>
<text text-anchor="middle" x="230" y="-99.8" font-family="Times,serif" font-size="14.00" fill="#000000">UserRoutingModule</text>
</g>
<!-- UserRoutingModule&#45;&gt;UserModule -->
<g id="edge5" class="edge">
<title>UserRoutingModule&#45;&gt;UserModule</title>
<path fill="none" stroke="#000000" d="M285.5142,-122.0225C285.5142,-139.3734 285.5142,-163 285.5142,-163 285.5142,-163 364.9857,-163 364.9857,-163"/>
<polygon fill="#000000" stroke="#000000" points="364.9857,-166.5001 374.9857,-163 364.9856,-159.5001 364.9857,-166.5001"/>
</g>
<!-- UserService -->
<g id="node9" class="node">
<title>UserService</title>
<ellipse fill="#fdb462" stroke="#000000" cx="82" cy="-104" rx="58.4415" ry="18"/>
<text text-anchor="middle" x="82" y="-99.8" font-family="Times,serif" font-size="14.00" fill="#000000">UserService</text>
</g>
<!-- UserService&#45;&gt;UserModule -->
<g id="edge8" class="edge">
<title>UserService&#45;&gt;UserModule</title>
<path fill="none" stroke="#000000" d="M82,-122.2843C82,-143.3211 82,-175 82,-175 82,-175 364.7617,-175 364.7617,-175"/>
<polygon fill="#000000" stroke="#000000" points="364.7618,-178.5001 374.7617,-175 364.7617,-171.5001 364.7618,-178.5001"/>
</g>
</g>
</svg>
