<?xml version="1.0" encoding="UTF-8" standalone="no"?>
<!DOCTYPE svg PUBLIC "-//W3C//DTD SVG 1.1//EN"
 "http://www.w3.org/Graphics/SVG/1.1/DTD/svg11.dtd">
<!-- Generated by graphviz version 2.40.1 (20161225.0304)
 -->
<!-- Title: dependencies Pages: 1 -->
<svg width="1129pt" height="284pt"
 viewBox="0.00 0.00 1129.00 284.00" xmlns="http://www.w3.org/2000/svg" xmlns:xlink="http://www.w3.org/1999/xlink">
<g id="graph0" class="graph" transform="scale(1 1) rotate(0) translate(4 280)">
<title>dependencies</title>
<polygon fill="#ffffff" stroke="transparent" points="-4,4 -4,-280 1125,-280 1125,4 -4,4"/>
<text text-anchor="start" x="539.5091" y="-42.4" font-family="sans-serif" font-weight="bold" font-size="14.00" fill="#000000">Legend</text>
<polygon fill="#ffffb3" stroke="transparent" points="326.5,-10 326.5,-30 346.5,-30 346.5,-10 326.5,-10"/>
<text text-anchor="start" x="350.129" y="-15.4" font-family="sans-serif" font-size="14.00" fill="#000000"> &#160;Declarations</text>
<polygon fill="#8dd3c7" stroke="transparent" points="439.5,-10 439.5,-30 459.5,-30 459.5,-10 439.5,-10"/>
<text text-anchor="start" x="463.2251" y="-15.4" font-family="sans-serif" font-size="14.00" fill="#000000"> &#160;Module</text>
<polygon fill="#80b1d3" stroke="transparent" points="525.5,-10 525.5,-30 545.5,-30 545.5,-10 525.5,-10"/>
<text text-anchor="start" x="549.2812" y="-15.4" font-family="sans-serif" font-size="14.00" fill="#000000"> &#160;Bootstrap</text>
<polygon fill="#fdb462" stroke="transparent" points="622.5,-10 622.5,-30 642.5,-30 642.5,-10 622.5,-10"/>
<text text-anchor="start" x="646.1732" y="-15.4" font-family="sans-serif" font-size="14.00" fill="#000000"> &#160;Providers</text>
<polygon fill="#fb8072" stroke="transparent" points="718.5,-10 718.5,-30 738.5,-30 738.5,-10 718.5,-10"/>
<text text-anchor="start" x="742.2258" y="-15.4" font-family="sans-serif" font-size="14.00" fill="#000000"> &#160;Exports</text>
<g id="clust1" class="cluster">
<title>cluster_GTModule</title>
<polygon fill="none" stroke="#000000" stroke-dasharray="1,5" points="8,-70 8,-268 1113,-268 1113,-70 8,-70"/>
</g>
<g id="clust3" class="cluster">
<title>cluster_GTModule_imports</title>
<polygon fill="none" stroke="#000000" points="33,-78 33,-130 1089,-130 1089,-78 33,-78"/>
</g>
<g id="clust4" class="cluster">
<title>cluster_GTModule_exports</title>
<polygon fill="none" stroke="#000000" points="16,-208 16,-260 1105,-260 1105,-208 16,-208"/>
</g>
<!-- HomeModule -->
<g id="node1" class="node">
<title>HomeModule</title>
<polygon fill="#8dd3c7" stroke="#000000" points="1080.7619,-122 1077.7619,-126 1056.7619,-126 1053.7619,-122 987.2381,-122 987.2381,-86 1080.7619,-86 1080.7619,-122"/>
<text text-anchor="middle" x="1034" y="-99.8" font-family="Times,serif" font-size="14.00" fill="#000000">HomeModule</text>
</g>
<!-- GTModule -->
<g id="node10" class="node">
<title>GTModule</title>
<polygon fill="#8dd3c7" stroke="#000000" points="594.2093,-187 591.2093,-191 570.2093,-191 567.2093,-187 515.7907,-187 515.7907,-151 594.2093,-151 594.2093,-187"/>
<text text-anchor="middle" x="555" y="-164.8" font-family="Times,serif" font-size="14.00" fill="#000000">GTModule</text>
</g>
<!-- HomeModule&#45;&gt;GTModule -->
<g id="edge1" class="edge">
<title>HomeModule&#45;&gt;GTModule</title>
<path fill="none" stroke="#000000" d="M993.2442,-122.2222C993.2442,-140.8285 993.2442,-167 993.2442,-167 993.2442,-167 604.2769,-167 604.2769,-167"/>
<polygon fill="#000000" stroke="#000000" points="604.277,-163.5001 594.2769,-167 604.2769,-170.5001 604.277,-163.5001"/>
</g>
<!-- InboxModule -->
<g id="node2" class="node">
<title>InboxModule</title>
<polygon fill="#8dd3c7" stroke="#000000" points="969.2106,-122 966.2106,-126 945.2106,-126 942.2106,-122 876.7894,-122 876.7894,-86 969.2106,-86 969.2106,-122"/>
<text text-anchor="middle" x="923" y="-99.8" font-family="Times,serif" font-size="14.00" fill="#000000">InboxModule</text>
</g>
<!-- InboxModule&#45;&gt;GTModule -->
<g id="edge2" class="edge">
<title>InboxModule&#45;&gt;GTModule</title>
<path fill="none" stroke="#000000" d="M881.5198,-122.0225C881.5198,-139.3734 881.5198,-163 881.5198,-163 881.5198,-163 604.3859,-163 604.3859,-163"/>
<polygon fill="#000000" stroke="#000000" points="604.386,-159.5001 594.3859,-163 604.3859,-166.5001 604.386,-159.5001"/>
</g>
<!-- KanbanModule -->
<g id="node3" class="node">
<title>KanbanModule</title>
<polygon fill="#8dd3c7" stroke="#000000" points="858.5856,-122 855.5856,-126 834.5856,-126 831.5856,-122 755.4144,-122 755.4144,-86 858.5856,-86 858.5856,-122"/>
<text text-anchor="middle" x="807" y="-99.8" font-family="Times,serif" font-size="14.00" fill="#000000">KanbanModule</text>
</g>
<!-- KanbanModule&#45;&gt;GTModule -->
<g id="edge3" class="edge">
<title>KanbanModule&#45;&gt;GTModule</title>
<path fill="none" stroke="#000000" d="M826.2643,-122.0091C826.2643,-138.0494 826.2643,-159 826.2643,-159 826.2643,-159 604.1544,-159 604.1544,-159"/>
<polygon fill="#000000" stroke="#000000" points="604.1545,-155.5001 594.1544,-159 604.1544,-162.5001 604.1545,-155.5001"/>
</g>
<!-- LoginModule -->
<g id="node4" class="node">
<title>LoginModule</title>
<polygon fill="#8dd3c7" stroke="#000000" points="737.493,-122 734.493,-126 713.493,-126 710.493,-122 644.507,-122 644.507,-86 737.493,-86 737.493,-122"/>
<text text-anchor="middle" x="691" y="-99.8" font-family="Times,serif" font-size="14.00" fill="#000000">LoginModule</text>
</g>
<!-- LoginModule&#45;&gt;GTModule -->
<g id="edge4" class="edge">
<title>LoginModule&#45;&gt;GTModule</title>
<path fill="none" stroke="#000000" d="M707.2488,-122.1243C707.2488,-136.7832 707.2488,-155 707.2488,-155 707.2488,-155 604.2079,-155 604.2079,-155"/>
<polygon fill="#000000" stroke="#000000" points="604.2079,-151.5001 594.2079,-155 604.2078,-158.5001 604.2079,-151.5001"/>
</g>
<!-- PageNotFoundModule -->
<g id="node5" class="node">
<title>PageNotFoundModule</title>
<polygon fill="#8dd3c7" stroke="#000000" points="626.5421,-122 623.5421,-126 602.5421,-126 599.5421,-122 483.4579,-122 483.4579,-86 626.5421,-86 626.5421,-122"/>
<text text-anchor="middle" x="555" y="-99.8" font-family="Times,serif" font-size="14.00" fill="#000000">PageNotFoundModule</text>
</g>
<!-- PageNotFoundModule&#45;&gt;GTModule -->
<g id="edge5" class="edge">
<title>PageNotFoundModule&#45;&gt;GTModule</title>
<path fill="none" stroke="#000000" d="M555,-122.1061C555,-122.1061 555,-140.991 555,-140.991"/>
<polygon fill="#000000" stroke="#000000" points="551.5001,-140.9909 555,-150.991 558.5001,-140.991 551.5001,-140.9909"/>
</g>
<!-- ProjectModule -->
<g id="node6" class="node">
<title>ProjectModule</title>
<polygon fill="#8dd3c7" stroke="#000000" points="465.7036,-122 462.7036,-126 441.7036,-126 438.7036,-122 366.2964,-122 366.2964,-86 465.7036,-86 465.7036,-122"/>
<text text-anchor="middle" x="416" y="-99.8" font-family="Times,serif" font-size="14.00" fill="#000000">ProjectModule</text>
</g>
<!-- ProjectModule&#45;&gt;GTModule -->
<g id="edge6" class="edge">
<title>ProjectModule&#45;&gt;GTModule</title>
<path fill="none" stroke="#000000" d="M431.0339,-122.1243C431.0339,-136.7832 431.0339,-155 431.0339,-155 431.0339,-155 505.7764,-155 505.7764,-155"/>
<polygon fill="#000000" stroke="#000000" points="505.7764,-158.5001 515.7764,-155 505.7763,-151.5001 505.7764,-158.5001"/>
</g>
<!-- SignupModule -->
<g id="node7" class="node">
<title>SignupModule</title>
<polygon fill="#8dd3c7" stroke="#000000" points="348.7233,-122 345.7233,-126 324.7233,-126 321.7233,-122 249.2767,-122 249.2767,-86 348.7233,-86 348.7233,-122"/>
<text text-anchor="middle" x="299" y="-99.8" font-family="Times,serif" font-size="14.00" fill="#000000">SignupModule</text>
</g>
<!-- SignupModule&#45;&gt;GTModule -->
<g id="edge7" class="edge">
<title>SignupModule&#45;&gt;GTModule</title>
<path fill="none" stroke="#000000" d="M311.3705,-122.0091C311.3705,-138.0494 311.3705,-159 311.3705,-159 311.3705,-159 505.8567,-159 505.8567,-159"/>
<polygon fill="#000000" stroke="#000000" points="505.8567,-162.5001 515.8567,-159 505.8567,-155.5001 505.8567,-162.5001"/>
</g>
<!-- TaskModule -->
<g id="node8" class="node">
<title>TaskModule</title>
<polygon fill="#8dd3c7" stroke="#000000" points="231.2619,-122 228.2619,-126 207.2619,-126 204.2619,-122 144.7381,-122 144.7381,-86 231.2619,-86 231.2619,-122"/>
<text text-anchor="middle" x="188" y="-99.8" font-family="Times,serif" font-size="14.00" fill="#000000">TaskModule</text>
</g>
<!-- TaskModule&#45;&gt;GTModule -->
<g id="edge8" class="edge">
<title>TaskModule&#45;&gt;GTModule</title>
<path fill="none" stroke="#000000" d="M226.7558,-122.0225C226.7558,-139.3734 226.7558,-163 226.7558,-163 226.7558,-163 505.7321,-163 505.7321,-163"/>
<polygon fill="#000000" stroke="#000000" points="505.7322,-166.5001 515.7321,-163 505.7321,-159.5001 505.7322,-166.5001"/>
</g>
<!-- UserModule -->
<g id="node9" class="node">
<title>UserModule</title>
<polygon fill="#8dd3c7" stroke="#000000" points="126.9762,-122 123.9762,-126 102.9762,-126 99.9762,-122 41.0238,-122 41.0238,-86 126.9762,-86 126.9762,-122"/>
<text text-anchor="middle" x="84" y="-99.8" font-family="Times,serif" font-size="14.00" fill="#000000">UserModule</text>
</g>
<!-- UserModule&#45;&gt;GTModule -->
<g id="edge9" class="edge">
<title>UserModule&#45;&gt;GTModule</title>
<path fill="none" stroke="#000000" d="M120.3631,-122.2222C120.3631,-140.8285 120.3631,-167 120.3631,-167 120.3631,-167 505.6623,-167 505.6623,-167"/>
<polygon fill="#000000" stroke="#000000" points="505.6623,-170.5001 515.6623,-167 505.6623,-163.5001 505.6623,-170.5001"/>
</g>
<!-- HomeModule  -->
<g id="node11" class="node">
<title>HomeModule </title>
<polygon fill="#fb8072" stroke="#000000" points="1096.762,-252 999.238,-252 999.238,-216 1096.762,-216 1096.762,-252"/>
<text text-anchor="middle" x="1048" y="-229.8" font-family="Times,serif" font-size="14.00" fill="#000000">HomeModule </text>
</g>
<!-- GTModule&#45;&gt;HomeModule  -->
<g id="edge10" class="edge">
<title>GTModule&#45;&gt;HomeModule </title>
<path fill="none" stroke="#000000" stroke-dasharray="5,2" d="M594.2889,-171C709.7804,-171 1040.125,-171 1040.125,-171 1040.125,-171 1040.125,-205.7778 1040.125,-205.7778"/>
<polygon fill="#000000" stroke="#000000" points="1036.6251,-205.7778 1040.125,-215.7778 1043.6251,-205.7778 1036.6251,-205.7778"/>
</g>
<!-- InboxModule  -->
<g id="node12" class="node">
<title>InboxModule </title>
<polygon fill="#fb8072" stroke="#000000" points="981.7108,-252 886.2892,-252 886.2892,-216 981.7108,-216 981.7108,-252"/>
<text text-anchor="middle" x="934" y="-229.8" font-family="Times,serif" font-size="14.00" fill="#000000">InboxModule </text>
</g>
<!-- GTModule&#45;&gt;InboxModule  -->
<g id="edge11" class="edge">
<title>GTModule&#45;&gt;InboxModule </title>
<path fill="none" stroke="#000000" stroke-dasharray="5,2" d="M594.1731,-175C689.8432,-175 927.625,-175 927.625,-175 927.625,-175 927.625,-205.9775 927.625,-205.9775"/>
<polygon fill="#000000" stroke="#000000" points="924.1251,-205.9774 927.625,-215.9775 931.1251,-205.9775 924.1251,-205.9774"/>
</g>
<!-- KanbanModule  -->
<g id="node13" class="node">
<title>KanbanModule </title>
<polygon fill="#fb8072" stroke="#000000" points="868.0864,-252 761.9136,-252 761.9136,-216 868.0864,-216 868.0864,-252"/>
<text text-anchor="middle" x="815" y="-229.8" font-family="Times,serif" font-size="14.00" fill="#000000">KanbanModule </text>
</g>
<!-- GTModule&#45;&gt;KanbanModule  -->
<g id="edge12" class="edge">
<title>GTModule&#45;&gt;KanbanModule </title>
<path fill="none" stroke="#000000" stroke-dasharray="5,2" d="M594.196,-179C661.9956,-179 793.9857,-179 793.9857,-179 793.9857,-179 793.9857,-205.9909 793.9857,-205.9909"/>
<polygon fill="#000000" stroke="#000000" points="790.4858,-205.9909 793.9857,-215.9909 797.4858,-205.991 790.4858,-205.9909"/>
</g>
<!-- LoginModule  -->
<g id="node14" class="node">
<title>LoginModule </title>
<polygon fill="#fb8072" stroke="#000000" points="743.4943,-252 646.5057,-252 646.5057,-216 743.4943,-216 743.4943,-252"/>
<text text-anchor="middle" x="695" y="-229.8" font-family="Times,serif" font-size="14.00" fill="#000000">LoginModule </text>
</g>
<!-- GTModule&#45;&gt;LoginModule  -->
<g id="edge13" class="edge">
<title>GTModule&#45;&gt;LoginModule </title>
<path fill="none" stroke="#000000" stroke-dasharray="5,2" d="M594.2735,-183C629.9383,-183 677.0012,-183 677.0012,-183 677.0012,-183 677.0012,-205.8757 677.0012,-205.8757"/>
<polygon fill="#000000" stroke="#000000" points="673.5013,-205.8757 677.0012,-215.8757 680.5013,-205.8757 673.5013,-205.8757"/>
</g>
<!-- PageNotFoundModule  -->
<g id="node15" class="node">
<title>PageNotFoundModule </title>
<polygon fill="#fb8072" stroke="#000000" points="628.5414,-252 481.4586,-252 481.4586,-216 628.5414,-216 628.5414,-252"/>
<text text-anchor="middle" x="555" y="-229.8" font-family="Times,serif" font-size="14.00" fill="#000000">PageNotFoundModule </text>
</g>
<!-- GTModule&#45;&gt;PageNotFoundModule  -->
<g id="edge14" class="edge">
<title>GTModule&#45;&gt;PageNotFoundModule </title>
<path fill="none" stroke="#000000" stroke-dasharray="5,2" d="M555,-187.1061C555,-187.1061 555,-205.991 555,-205.991"/>
<polygon fill="#000000" stroke="#000000" points="551.5001,-205.9909 555,-215.991 558.5001,-205.991 551.5001,-205.9909"/>
</g>
<!-- ProjectModule  -->
<g id="node16" class="node">
<title>ProjectModule </title>
<polygon fill="#fb8072" stroke="#000000" points="463.2038,-252 360.7962,-252 360.7962,-216 463.2038,-216 463.2038,-252"/>
<text text-anchor="middle" x="412" y="-229.8" font-family="Times,serif" font-size="14.00" fill="#000000">ProjectModule </text>
</g>
<!-- GTModule&#45;&gt;ProjectModule  -->
<g id="edge15" class="edge">
<title>GTModule&#45;&gt;ProjectModule </title>
<path fill="none" stroke="#000000" stroke-dasharray="5,2" d="M515.563,-183C469.2652,-183 398.7161,-183 398.7161,-183 398.7161,-183 398.7161,-205.8757 398.7161,-205.8757"/>
<polygon fill="#000000" stroke="#000000" points="395.2162,-205.8757 398.7161,-215.8757 402.2162,-205.8757 395.2162,-205.8757"/>
</g>
<!-- SignupModule  -->
<g id="node17" class="node">
<title>SignupModule </title>
<polygon fill="#fb8072" stroke="#000000" points="342.2234,-252 239.7766,-252 239.7766,-216 342.2234,-216 342.2234,-252"/>
<text text-anchor="middle" x="291" y="-229.8" font-family="Times,serif" font-size="14.00" fill="#000000">SignupModule </text>
</g>
<!-- GTModule&#45;&gt;SignupModule  -->
<g id="edge16" class="edge">
<title>GTModule&#45;&gt;SignupModule </title>
<path fill="none" stroke="#000000" stroke-dasharray="5,2" d="M515.6536,-179C439.7186,-179 280.3795,-179 280.3795,-179 280.3795,-179 280.3795,-205.9909 280.3795,-205.9909"/>
<polygon fill="#000000" stroke="#000000" points="276.8796,-205.9909 280.3795,-215.9909 283.8796,-205.991 276.8796,-205.9909"/>
</g>
<!-- TaskModule  -->
<g id="node18" class="node">
<title>TaskModule </title>
<polygon fill="#fb8072" stroke="#000000" points="222.262,-252 131.738,-252 131.738,-216 222.262,-216 222.262,-252"/>
<text text-anchor="middle" x="177" y="-229.8" font-family="Times,serif" font-size="14.00" fill="#000000">TaskModule </text>
</g>
<!-- GTModule&#45;&gt;TaskModule  -->
<g id="edge17" class="edge">
<title>GTModule&#45;&gt;TaskModule </title>
<path fill="none" stroke="#000000" stroke-dasharray="5,2" d="M515.5814,-175C419.9393,-175 183.375,-175 183.375,-175 183.375,-175 183.375,-205.9775 183.375,-205.9775"/>
<polygon fill="#000000" stroke="#000000" points="179.8751,-205.9774 183.375,-215.9775 186.8751,-205.9775 179.8751,-205.9774"/>
</g>
<!-- UserModule  -->
<g id="node19" class="node">
<title>UserModule </title>
<polygon fill="#fb8072" stroke="#000000" points="113.9775,-252 24.0225,-252 24.0225,-216 113.9775,-216 113.9775,-252"/>
<text text-anchor="middle" x="69" y="-229.8" font-family="Times,serif" font-size="14.00" fill="#000000">UserModule </text>
</g>
<!-- GTModule&#45;&gt;UserModule  -->
<g id="edge18" class="edge">
<title>GTModule&#45;&gt;UserModule </title>
<path fill="none" stroke="#000000" stroke-dasharray="5,2" d="M515.5076,-171C401.0747,-171 77.375,-171 77.375,-171 77.375,-171 77.375,-205.7778 77.375,-205.7778"/>
<polygon fill="#000000" stroke="#000000" points="73.8751,-205.7778 77.375,-215.7778 80.8751,-205.7778 73.8751,-205.7778"/>
</g>
</g>
</svg>
