<?xml version="1.0" encoding="UTF-8" standalone="no"?>
<!DOCTYPE svg PUBLIC "-//W3C//DTD SVG 1.1//EN"
 "http://www.w3.org/Graphics/SVG/1.1/DTD/svg11.dtd">
<!-- Generated by graphviz version 2.40.1 (20161225.0304)
 -->
<!-- Title: dependencies Pages: 1 -->
<svg width="573pt" height="284pt"
 viewBox="0.00 0.00 573.00 284.00" xmlns="http://www.w3.org/2000/svg" xmlns:xlink="http://www.w3.org/1999/xlink">
<g id="graph0" class="graph" transform="scale(1 1) rotate(0) translate(4 280)">
<title>dependencies</title>
<polygon fill="#ffffff" stroke="transparent" points="-4,4 -4,-280 569,-280 569,4 -4,4"/>
<text text-anchor="start" x="261.5091" y="-42.4" font-family="sans-serif" font-weight="bold" font-size="14.00" fill="#000000">Legend</text>
<polygon fill="#ffffb3" stroke="transparent" points="48.5,-10 48.5,-30 68.5,-30 68.5,-10 48.5,-10"/>
<text text-anchor="start" x="72.129" y="-15.4" font-family="sans-serif" font-size="14.00" fill="#000000"> &#160;Declarations</text>
<polygon fill="#8dd3c7" stroke="transparent" points="161.5,-10 161.5,-30 181.5,-30 181.5,-10 161.5,-10"/>
<text text-anchor="start" x="185.2251" y="-15.4" font-family="sans-serif" font-size="14.00" fill="#000000"> &#160;Module</text>
<polygon fill="#80b1d3" stroke="transparent" points="247.5,-10 247.5,-30 267.5,-30 267.5,-10 247.5,-10"/>
<text text-anchor="start" x="271.2812" y="-15.4" font-family="sans-serif" font-size="14.00" fill="#000000"> &#160;Bootstrap</text>
<polygon fill="#fdb462" stroke="transparent" points="344.5,-10 344.5,-30 364.5,-30 364.5,-10 344.5,-10"/>
<text text-anchor="start" x="368.1732" y="-15.4" font-family="sans-serif" font-size="14.00" fill="#000000"> &#160;Providers</text>
<polygon fill="#fb8072" stroke="transparent" points="440.5,-10 440.5,-30 460.5,-30 460.5,-10 440.5,-10"/>
<text text-anchor="start" x="464.2258" y="-15.4" font-family="sans-serif" font-size="14.00" fill="#000000"> &#160;Exports</text>
<g id="clust1" class="cluster">
<title>cluster_GTPipesModule</title>
<polygon fill="none" stroke="#000000" stroke-dasharray="1,5" points="8,-70 8,-268 557,-268 557,-70 8,-70"/>
</g>
<g id="clust2" class="cluster">
<title>cluster_GTPipesModule_declarations</title>
<polygon fill="none" stroke="#000000" points="25,-78 25,-130 543,-130 543,-78 25,-78"/>
</g>
<g id="clust8" class="cluster">
<title>cluster_GTPipesModule_exports</title>
<polygon fill="none" stroke="#000000" points="16,-208 16,-260 549,-260 549,-208 16,-208"/>
</g>
<!-- DateProximityPipe -->
<g id="node1" class="node">
<title>DateProximityPipe</title>
<polygon fill="#ffffb3" stroke="#000000" points="534.8202,-122 411.1798,-122 411.1798,-86 534.8202,-86 534.8202,-122"/>
<text text-anchor="middle" x="473" y="-99.8" font-family="Times,serif" font-size="14.00" fill="#000000">DateProximityPipe</text>
</g>
<!-- GTPipesModule -->
<g id="node5" class="node">
<title>GTPipesModule</title>
<polygon fill="#8dd3c7" stroke="#000000" points="277.0424,-187 274.0424,-191 253.0424,-191 250.0424,-187 168.9576,-187 168.9576,-151 277.0424,-151 277.0424,-187"/>
<text text-anchor="middle" x="223" y="-164.8" font-family="Times,serif" font-size="14.00" fill="#000000">GTPipesModule</text>
</g>
<!-- DateProximityPipe&#45;&gt;GTPipesModule -->
<g id="edge1" class="edge">
<title>DateProximityPipe&#45;&gt;GTPipesModule</title>
<path fill="none" stroke="#000000" d="M494.6366,-122.2667C494.6366,-140.5552 494.6366,-166 494.6366,-166 494.6366,-166 287.3169,-166 287.3169,-166"/>
<polygon fill="#000000" stroke="#000000" points="287.3169,-162.5001 277.3169,-166 287.3168,-169.5001 287.3169,-162.5001"/>
</g>
<!-- GroupByPipe -->
<g id="node2" class="node">
<title>GroupByPipe</title>
<polygon fill="#ffffb3" stroke="#000000" points="393.4916,-122 300.5084,-122 300.5084,-86 393.4916,-86 393.4916,-122"/>
<text text-anchor="middle" x="347" y="-99.8" font-family="Times,serif" font-size="14.00" fill="#000000">GroupByPipe</text>
</g>
<!-- GroupByPipe&#45;&gt;GTPipesModule -->
<g id="edge2" class="edge">
<title>GroupByPipe&#45;&gt;GTPipesModule</title>
<path fill="none" stroke="#000000" d="M362.4986,-122.0091C362.4986,-138.0494 362.4986,-159 362.4986,-159 362.4986,-159 287.3332,-159 287.3332,-159"/>
<polygon fill="#000000" stroke="#000000" points="287.3333,-155.5001 277.3332,-159 287.3332,-162.5001 287.3333,-155.5001"/>
</g>
<!-- MakeTrustedImage -->
<g id="node3" class="node">
<title>MakeTrustedImage</title>
<polygon fill="#ffffb3" stroke="#000000" points="282.6178,-122 157.3822,-122 157.3822,-86 282.6178,-86 282.6178,-122"/>
<text text-anchor="middle" x="220" y="-99.8" font-family="Times,serif" font-size="14.00" fill="#000000">MakeTrustedImage</text>
</g>
<!-- MakeTrustedImage&#45;&gt;GTPipesModule -->
<g id="edge3" class="edge">
<title>MakeTrustedImage&#45;&gt;GTPipesModule</title>
<path fill="none" stroke="#000000" d="M223,-122.1061C223,-122.1061 223,-140.991 223,-140.991"/>
<polygon fill="#000000" stroke="#000000" points="219.5001,-140.9909 223,-150.991 226.5001,-140.991 219.5001,-140.9909"/>
</g>
<!-- StatusColorPipe -->
<g id="node4" class="node">
<title>StatusColorPipe</title>
<polygon fill="#ffffb3" stroke="#000000" points="139.4986,-122 32.5014,-122 32.5014,-86 139.4986,-86 139.4986,-122"/>
<text text-anchor="middle" x="86" y="-99.8" font-family="Times,serif" font-size="14.00" fill="#000000">StatusColorPipe</text>
</g>
<!-- StatusColorPipe&#45;&gt;GTPipesModule -->
<g id="edge4" class="edge">
<title>StatusColorPipe&#45;&gt;GTPipesModule</title>
<path fill="none" stroke="#000000" d="M100.3331,-122.0225C100.3331,-139.3734 100.3331,-163 100.3331,-163 100.3331,-163 158.8394,-163 158.8394,-163"/>
<polygon fill="#000000" stroke="#000000" points="158.8395,-166.5001 168.8394,-163 158.8394,-159.5001 158.8395,-166.5001"/>
</g>
<!-- DateProximityPipe  -->
<g id="node6" class="node">
<title>DateProximityPipe </title>
<polygon fill="#fb8072" stroke="#000000" points="541.3199,-252 414.6801,-252 414.6801,-216 541.3199,-216 541.3199,-252"/>
<text text-anchor="middle" x="478" y="-229.8" font-family="Times,serif" font-size="14.00" fill="#000000">DateProximityPipe </text>
</g>
<!-- GTPipesModule&#45;&gt;DateProximityPipe  -->
<g id="edge5" class="edge">
<title>GTPipesModule&#45;&gt;DateProximityPipe </title>
<path fill="none" stroke="#000000" stroke-dasharray="5,2" d="M277.303,-173C345.761,-173 454.6134,-173 454.6134,-173 454.6134,-173 454.6134,-205.698 454.6134,-205.698"/>
<polygon fill="#000000" stroke="#000000" points="451.1135,-205.698 454.6134,-215.698 458.1135,-205.698 451.1135,-205.698"/>
</g>
<!-- GroupByPipe  -->
<g id="node7" class="node">
<title>GroupByPipe </title>
<polygon fill="#fb8072" stroke="#000000" points="396.4929,-252 299.5071,-252 299.5071,-216 396.4929,-216 396.4929,-252"/>
<text text-anchor="middle" x="348" y="-229.8" font-family="Times,serif" font-size="14.00" fill="#000000">GroupByPipe </text>
</g>
<!-- GTPipesModule&#45;&gt;GroupByPipe  -->
<g id="edge6" class="edge">
<title>GTPipesModule&#45;&gt;GroupByPipe </title>
<path fill="none" stroke="#000000" stroke-dasharray="5,2" d="M277.2507,-180C304.376,-180 331.5014,-180 331.5014,-180 331.5014,-180 331.5014,-205.7181 331.5014,-205.7181"/>
<polygon fill="#000000" stroke="#000000" points="328.0015,-205.718 331.5014,-215.7181 335.0015,-205.7181 328.0015,-205.718"/>
</g>
<!-- MakeTrustedImage  -->
<g id="node8" class="node">
<title>MakeTrustedImage </title>
<polygon fill="#fb8072" stroke="#000000" points="281.6173,-252 152.3827,-252 152.3827,-216 281.6173,-216 281.6173,-252"/>
<text text-anchor="middle" x="217" y="-229.8" font-family="Times,serif" font-size="14.00" fill="#000000">MakeTrustedImage </text>
</g>
<!-- GTPipesModule&#45;&gt;MakeTrustedImage  -->
<g id="edge7" class="edge">
<title>GTPipesModule&#45;&gt;MakeTrustedImage </title>
<path fill="none" stroke="#000000" stroke-dasharray="5,2" d="M223,-187.1061C223,-187.1061 223,-205.991 223,-205.991"/>
<polygon fill="#000000" stroke="#000000" points="219.5001,-205.9909 223,-215.991 226.5001,-205.991 219.5001,-205.9909"/>
</g>
<!-- StatusColorPipe  -->
<g id="node9" class="node">
<title>StatusColorPipe </title>
<polygon fill="#fb8072" stroke="#000000" points="134.4997,-252 23.5003,-252 23.5003,-216 134.4997,-216 134.4997,-252"/>
<text text-anchor="middle" x="79" y="-229.8" font-family="Times,serif" font-size="14.00" fill="#000000">StatusColorPipe </text>
</g>
<!-- GTPipesModule&#45;&gt;StatusColorPipe  -->
<g id="edge8" class="edge">
<title>GTPipesModule&#45;&gt;StatusColorPipe </title>
<path fill="none" stroke="#000000" stroke-dasharray="5,2" d="M168.6743,-175C123.4493,-175 66.4169,-175 66.4169,-175 66.4169,-175 66.4169,-205.9775 66.4169,-205.9775"/>
<polygon fill="#000000" stroke="#000000" points="62.917,-205.9774 66.4169,-215.9775 69.917,-205.9775 62.917,-205.9774"/>
</g>
</g>
</svg>
