<?xml version="1.0" encoding="UTF-8" standalone="no"?>
<!DOCTYPE svg PUBLIC "-//W3C//DTD SVG 1.1//EN"
 "http://www.w3.org/Graphics/SVG/1.1/DTD/svg11.dtd">
<!-- Generated by graphviz version 2.40.1 (20161225.0304)
 -->
<!-- Title: dependencies Pages: 1 -->
<svg width="2619pt" height="284pt"
 viewBox="0.00 0.00 2619.00 284.00" xmlns="http://www.w3.org/2000/svg" xmlns:xlink="http://www.w3.org/1999/xlink">
<g id="graph0" class="graph" transform="scale(1 1) rotate(0) translate(4 280)">
<title>dependencies</title>
<polygon fill="#ffffff" stroke="transparent" points="-4,4 -4,-280 2615,-280 2615,4 -4,4"/>
<text text-anchor="start" x="1284.5091" y="-42.4" font-family="sans-serif" font-weight="bold" font-size="14.00" fill="#000000">Legend</text>
<polygon fill="#ffffb3" stroke="transparent" points="1071.5,-10 1071.5,-30 1091.5,-30 1091.5,-10 1071.5,-10"/>
<text text-anchor="start" x="1095.129" y="-15.4" font-family="sans-serif" font-size="14.00" fill="#000000"> &#160;Declarations</text>
<polygon fill="#8dd3c7" stroke="transparent" points="1184.5,-10 1184.5,-30 1204.5,-30 1204.5,-10 1184.5,-10"/>
<text text-anchor="start" x="1208.2251" y="-15.4" font-family="sans-serif" font-size="14.00" fill="#000000"> &#160;Module</text>
<polygon fill="#80b1d3" stroke="transparent" points="1270.5,-10 1270.5,-30 1290.5,-30 1290.5,-10 1270.5,-10"/>
<text text-anchor="start" x="1294.2812" y="-15.4" font-family="sans-serif" font-size="14.00" fill="#000000"> &#160;Bootstrap</text>
<polygon fill="#fdb462" stroke="transparent" points="1367.5,-10 1367.5,-30 1387.5,-30 1387.5,-10 1367.5,-10"/>
<text text-anchor="start" x="1391.1732" y="-15.4" font-family="sans-serif" font-size="14.00" fill="#000000"> &#160;Providers</text>
<polygon fill="#fb8072" stroke="transparent" points="1463.5,-10 1463.5,-30 1483.5,-30 1483.5,-10 1463.5,-10"/>
<text text-anchor="start" x="1487.2258" y="-15.4" font-family="sans-serif" font-size="14.00" fill="#000000"> &#160;Exports</text>
<g id="clust1" class="cluster">
<title>cluster_TaskModule</title>
<polygon fill="none" stroke="#000000" stroke-dasharray="1,5" points="8,-70 8,-268 2603,-268 2603,-70 8,-70"/>
</g>
<g id="clust2" class="cluster">
<title>cluster_TaskModule_declarations</title>
<polygon fill="none" stroke="#000000" points="523,-78 523,-130 2595,-130 2595,-78 523,-78"/>
</g>
<g id="clust15" class="cluster">
<title>cluster_TaskModule_imports</title>
<polygon fill="none" stroke="#000000" points="16,-78 16,-130 515,-130 515,-78 16,-78"/>
</g>
<g id="clust16" class="cluster">
<title>cluster_TaskModule_exports</title>
<polygon fill="none" stroke="#000000" points="837,-208 837,-260 1611,-260 1611,-208 837,-208"/>
</g>
<!-- GTTasksCarouselComponent -->
<g id="node1" class="node">
<title>GTTasksCarouselComponent</title>
<polygon fill="#ffffb3" stroke="#000000" points="2587.4101,-122 2404.5899,-122 2404.5899,-86 2587.4101,-86 2587.4101,-122"/>
<text text-anchor="middle" x="2496" y="-99.8" font-family="Times,serif" font-size="14.00" fill="#000000">GTTasksCarouselComponent</text>
</g>
<!-- TaskModule -->
<g id="node13" class="node">
<title>TaskModule</title>
<polygon fill="#8dd3c7" stroke="#000000" points="1287.2619,-187 1284.2619,-191 1263.2619,-191 1260.2619,-187 1200.7381,-187 1200.7381,-151 1287.2619,-151 1287.2619,-187"/>
<text text-anchor="middle" x="1244" y="-164.8" font-family="Times,serif" font-size="14.00" fill="#000000">TaskModule</text>
</g>
<!-- GTTasksCarouselComponent&#45;&gt;TaskModule -->
<g id="edge1" class="edge">
<title>GTTasksCarouselComponent&#45;&gt;TaskModule</title>
<path fill="none" stroke="#000000" d="M2496,-122.0449C2496,-143.6623 2496,-177 2496,-177 2496,-177 1297.4603,-177 1297.4603,-177"/>
<polygon fill="#000000" stroke="#000000" points="1297.4603,-173.5001 1287.4603,-177 1297.4602,-180.5001 1297.4603,-173.5001"/>
</g>
<!-- TaskCardComponent -->
<g id="node2" class="node">
<title>TaskCardComponent</title>
<polygon fill="#ffffb3" stroke="#000000" points="2386.7562,-122 2251.2438,-122 2251.2438,-86 2386.7562,-86 2386.7562,-122"/>
<text text-anchor="middle" x="2319" y="-99.8" font-family="Times,serif" font-size="14.00" fill="#000000">TaskCardComponent</text>
</g>
<!-- TaskCardComponent&#45;&gt;TaskModule -->
<g id="edge2" class="edge">
<title>TaskCardComponent&#45;&gt;TaskModule</title>
<path fill="none" stroke="#000000" d="M2319,-122.1289C2319,-142.5724 2319,-173 2319,-173 2319,-173 1297.4727,-173 1297.4727,-173"/>
<polygon fill="#000000" stroke="#000000" points="1297.4727,-169.5001 1287.4727,-173 1297.4727,-176.5001 1297.4727,-169.5001"/>
</g>
<!-- TaskChangesComponent -->
<g id="node3" class="node">
<title>TaskChangesComponent</title>
<polygon fill="#ffffb3" stroke="#000000" points="2233.2548,-122 2076.7452,-122 2076.7452,-86 2233.2548,-86 2233.2548,-122"/>
<text text-anchor="middle" x="2155" y="-99.8" font-family="Times,serif" font-size="14.00" fill="#000000">TaskChangesComponent</text>
</g>
<!-- TaskChangesComponent&#45;&gt;TaskModule -->
<g id="edge3" class="edge">
<title>TaskChangesComponent&#45;&gt;TaskModule</title>
<path fill="none" stroke="#000000" d="M2155,-122.1061C2155,-141.3391 2155,-169 2155,-169 2155,-169 1297.3266,-169 1297.3266,-169"/>
<polygon fill="#000000" stroke="#000000" points="1297.3266,-165.5001 1287.3266,-169 1297.3265,-172.5001 1297.3266,-165.5001"/>
</g>
<!-- TaskCommentsComponent -->
<g id="node4" class="node">
<title>TaskCommentsComponent</title>
<polygon fill="#ffffb3" stroke="#000000" points="2058.7119,-122 1889.2881,-122 1889.2881,-86 2058.7119,-86 2058.7119,-122"/>
<text text-anchor="middle" x="1974" y="-99.8" font-family="Times,serif" font-size="14.00" fill="#000000">TaskCommentsComponent</text>
</g>
<!-- TaskCommentsComponent&#45;&gt;TaskModule -->
<g id="edge4" class="edge">
<title>TaskCommentsComponent&#45;&gt;TaskModule</title>
<path fill="none" stroke="#000000" d="M1974,-122.2667C1974,-140.5552 1974,-166 1974,-166 1974,-166 1297.4787,-166 1297.4787,-166"/>
<polygon fill="#000000" stroke="#000000" points="1297.4787,-162.5001 1287.4787,-166 1297.4786,-169.5001 1297.4787,-162.5001"/>
</g>
<!-- TaskComponent -->
<g id="node5" class="node">
<title>TaskComponent</title>
<polygon fill="#ffffb3" stroke="#000000" points="1871.0452,-122 1762.9548,-122 1762.9548,-86 1871.0452,-86 1871.0452,-122"/>
<text text-anchor="middle" x="1817" y="-99.8" font-family="Times,serif" font-size="14.00" fill="#000000">TaskComponent</text>
</g>
<!-- TaskComponent&#45;&gt;TaskModule -->
<g id="edge5" class="edge">
<title>TaskComponent&#45;&gt;TaskModule</title>
<path fill="none" stroke="#000000" d="M1817,-122.0336C1817,-139.0597 1817,-162 1817,-162 1817,-162 1297.5384,-162 1297.5384,-162"/>
<polygon fill="#000000" stroke="#000000" points="1297.5385,-158.5001 1287.5384,-162 1297.5384,-165.5001 1297.5385,-158.5001"/>
</g>
<!-- TaskDetailComponent -->
<g id="node6" class="node">
<title>TaskDetailComponent</title>
<polygon fill="#ffffb3" stroke="#000000" points="1744.252,-122 1601.748,-122 1601.748,-86 1744.252,-86 1744.252,-122"/>
<text text-anchor="middle" x="1673" y="-99.8" font-family="Times,serif" font-size="14.00" fill="#000000">TaskDetailComponent</text>
</g>
<!-- TaskDetailComponent&#45;&gt;TaskModule -->
<g id="edge6" class="edge">
<title>TaskDetailComponent&#45;&gt;TaskModule</title>
<path fill="none" stroke="#000000" d="M1673.5019,-122.0091C1673.5019,-138.0494 1673.5019,-159 1673.5019,-159 1673.5019,-159 1297.5466,-159 1297.5466,-159"/>
<polygon fill="#000000" stroke="#000000" points="1297.5466,-155.5001 1287.5466,-159 1297.5465,-162.5001 1297.5466,-155.5001"/>
</g>
<!-- TaskFormComponent -->
<g id="node7" class="node">
<title>TaskFormComponent</title>
<polygon fill="#ffffb3" stroke="#000000" points="1583.3781,-122 1444.6219,-122 1444.6219,-86 1583.3781,-86 1583.3781,-122"/>
<text text-anchor="middle" x="1514" y="-99.8" font-family="Times,serif" font-size="14.00" fill="#000000">TaskFormComponent</text>
</g>
<!-- TaskFormComponent&#45;&gt;TaskModule -->
<g id="edge7" class="edge">
<title>TaskFormComponent&#45;&gt;TaskModule</title>
<path fill="none" stroke="#000000" d="M1454.1971,-122.1243C1454.1971,-136.7832 1454.1971,-155 1454.1971,-155 1454.1971,-155 1297.2981,-155 1297.2981,-155"/>
<polygon fill="#000000" stroke="#000000" points="1297.2981,-151.5001 1287.2981,-155 1297.2981,-158.5001 1297.2981,-151.5001"/>
</g>
<!-- TaskListCardViewComponent -->
<g id="node8" class="node">
<title>TaskListCardViewComponent</title>
<polygon fill="#ffffb3" stroke="#000000" points="1426.8529,-122 1239.1471,-122 1239.1471,-86 1426.8529,-86 1426.8529,-122"/>
<text text-anchor="middle" x="1333" y="-99.8" font-family="Times,serif" font-size="14.00" fill="#000000">TaskListCardViewComponent</text>
</g>
<!-- TaskListCardViewComponent&#45;&gt;TaskModule -->
<g id="edge8" class="edge">
<title>TaskListCardViewComponent&#45;&gt;TaskModule</title>
<path fill="none" stroke="#000000" d="M1263.2272,-122.1061C1263.2272,-122.1061 1263.2272,-140.991 1263.2272,-140.991"/>
<polygon fill="#000000" stroke="#000000" points="1259.7273,-140.9909 1263.2272,-150.991 1266.7273,-140.991 1259.7273,-140.9909"/>
</g>
<!-- TaskListComponent -->
<g id="node9" class="node">
<title>TaskListComponent</title>
<polygon fill="#ffffb3" stroke="#000000" points="1221.323,-122 1090.677,-122 1090.677,-86 1221.323,-86 1221.323,-122"/>
<text text-anchor="middle" x="1156" y="-99.8" font-family="Times,serif" font-size="14.00" fill="#000000">TaskListComponent</text>
</g>
<!-- TaskListComponent&#45;&gt;TaskModule -->
<g id="edge9" class="edge">
<title>TaskListComponent&#45;&gt;TaskModule</title>
<path fill="none" stroke="#000000" d="M1210.8903,-122.1061C1210.8903,-122.1061 1210.8903,-140.991 1210.8903,-140.991"/>
<polygon fill="#000000" stroke="#000000" points="1207.3903,-140.9909 1210.8903,-150.991 1214.3903,-140.991 1207.3903,-140.9909"/>
</g>
<!-- TaskListGridViewComponent -->
<g id="node10" class="node">
<title>TaskListGridViewComponent</title>
<polygon fill="#ffffb3" stroke="#000000" points="1073.299,-122 886.701,-122 886.701,-86 1073.299,-86 1073.299,-122"/>
<text text-anchor="middle" x="980" y="-99.8" font-family="Times,serif" font-size="14.00" fill="#000000">TaskListGridViewComponent</text>
</g>
<!-- TaskListGridViewComponent&#45;&gt;TaskModule -->
<g id="edge10" class="edge">
<title>TaskListGridViewComponent&#45;&gt;TaskModule</title>
<path fill="none" stroke="#000000" d="M1047.1191,-122.1243C1047.1191,-136.7832 1047.1191,-155 1047.1191,-155 1047.1191,-155 1190.3057,-155 1190.3057,-155"/>
<polygon fill="#000000" stroke="#000000" points="1190.3058,-158.5001 1200.3057,-155 1190.3057,-151.5001 1190.3058,-158.5001"/>
</g>
<!-- TaskNotFoundComponent -->
<g id="node11" class="node">
<title>TaskNotFoundComponent</title>
<polygon fill="#ffffb3" stroke="#000000" points="868.8243,-122 703.1757,-122 703.1757,-86 868.8243,-86 868.8243,-122"/>
<text text-anchor="middle" x="786" y="-99.8" font-family="Times,serif" font-size="14.00" fill="#000000">TaskNotFoundComponent</text>
</g>
<!-- TaskNotFoundComponent&#45;&gt;TaskModule -->
<g id="edge11" class="edge">
<title>TaskNotFoundComponent&#45;&gt;TaskModule</title>
<path fill="none" stroke="#000000" d="M856.8526,-122.0091C856.8526,-138.0494 856.8526,-159 856.8526,-159 856.8526,-159 1190.7162,-159 1190.7162,-159"/>
<polygon fill="#000000" stroke="#000000" points="1190.7162,-162.5001 1200.7162,-159 1190.7161,-155.5001 1190.7162,-162.5001"/>
</g>
<!-- TaskPreviewComponent -->
<g id="node12" class="node">
<title>TaskPreviewComponent</title>
<polygon fill="#ffffb3" stroke="#000000" points="685.4144,-122 530.5856,-122 530.5856,-86 685.4144,-86 685.4144,-122"/>
<text text-anchor="middle" x="608" y="-99.8" font-family="Times,serif" font-size="14.00" fill="#000000">TaskPreviewComponent</text>
</g>
<!-- TaskPreviewComponent&#45;&gt;TaskModule -->
<g id="edge12" class="edge">
<title>TaskPreviewComponent&#45;&gt;TaskModule</title>
<path fill="none" stroke="#000000" d="M608,-122.0336C608,-139.0597 608,-162 608,-162 608,-162 1190.2851,-162 1190.2851,-162"/>
<polygon fill="#000000" stroke="#000000" points="1190.2852,-165.5001 1200.2851,-162 1190.2851,-158.5001 1190.2852,-165.5001"/>
</g>
<!-- TaskCardComponent  -->
<g id="node18" class="node">
<title>TaskCardComponent </title>
<polygon fill="#fb8072" stroke="#000000" points="1602.7562,-252 1463.2438,-252 1463.2438,-216 1602.7562,-216 1602.7562,-252"/>
<text text-anchor="middle" x="1533" y="-229.8" font-family="Times,serif" font-size="14.00" fill="#000000">TaskCardComponent </text>
</g>
<!-- TaskModule&#45;&gt;TaskCardComponent  -->
<g id="edge17" class="edge">
<title>TaskModule&#45;&gt;TaskCardComponent </title>
<path fill="none" stroke="#000000" stroke-dasharray="5,2" d="M1287.3505,-180C1365.8304,-180 1523.4055,-180 1523.4055,-180 1523.4055,-180 1523.4055,-205.7181 1523.4055,-205.7181"/>
<polygon fill="#000000" stroke="#000000" points="1519.9056,-205.718 1523.4055,-215.7181 1526.9056,-205.7181 1519.9056,-205.718"/>
</g>
<!-- TaskComponent  -->
<g id="node19" class="node">
<title>TaskComponent </title>
<polygon fill="#fb8072" stroke="#000000" points="1445.0442,-252 1332.9558,-252 1332.9558,-216 1445.0442,-216 1445.0442,-252"/>
<text text-anchor="middle" x="1389" y="-229.8" font-family="Times,serif" font-size="14.00" fill="#000000">TaskComponent </text>
</g>
<!-- TaskModule&#45;&gt;TaskComponent  -->
<g id="edge18" class="edge">
<title>TaskModule&#45;&gt;TaskComponent </title>
<path fill="none" stroke="#000000" stroke-dasharray="5,2" d="M1287.3899,-184C1327.1772,-184 1379.9522,-184 1379.9522,-184 1379.9522,-184 1379.9522,-205.9489 1379.9522,-205.9489"/>
<polygon fill="#000000" stroke="#000000" points="1376.4522,-205.9488 1379.9522,-215.9489 1383.4522,-205.9489 1376.4522,-205.9488"/>
</g>
<!-- TaskFormComponent  -->
<g id="node20" class="node">
<title>TaskFormComponent </title>
<polygon fill="#fb8072" stroke="#000000" points="1315.3785,-252 1172.6215,-252 1172.6215,-216 1315.3785,-216 1315.3785,-252"/>
<text text-anchor="middle" x="1244" y="-229.8" font-family="Times,serif" font-size="14.00" fill="#000000">TaskFormComponent </text>
</g>
<!-- TaskModule&#45;&gt;TaskFormComponent  -->
<g id="edge19" class="edge">
<title>TaskModule&#45;&gt;TaskFormComponent </title>
<path fill="none" stroke="#000000" stroke-dasharray="5,2" d="M1244,-187.1061C1244,-187.1061 1244,-205.991 1244,-205.991"/>
<polygon fill="#000000" stroke="#000000" points="1240.5001,-205.9909 1244,-215.991 1247.5001,-205.991 1240.5001,-205.9909"/>
</g>
<!-- TaskListComponent  -->
<g id="node21" class="node">
<title>TaskListComponent </title>
<polygon fill="#fb8072" stroke="#000000" points="1154.8227,-252 1021.1773,-252 1021.1773,-216 1154.8227,-216 1154.8227,-252"/>
<text text-anchor="middle" x="1088" y="-229.8" font-family="Times,serif" font-size="14.00" fill="#000000">TaskListComponent </text>
</g>
<!-- TaskModule&#45;&gt;TaskListComponent  -->
<g id="edge20" class="edge">
<title>TaskModule&#45;&gt;TaskListComponent </title>
<path fill="none" stroke="#000000" stroke-dasharray="5,2" d="M1200.6132,-184C1165.8577,-184 1122.875,-184 1122.875,-184 1122.875,-184 1122.875,-205.9489 1122.875,-205.9489"/>
<polygon fill="#000000" stroke="#000000" points="1119.3751,-205.9488 1122.875,-215.9489 1126.3751,-205.9489 1119.3751,-205.9488"/>
</g>
<!-- TaskPreviewComponent  -->
<g id="node22" class="node">
<title>TaskPreviewComponent </title>
<polygon fill="#fb8072" stroke="#000000" points="1002.9138,-252 845.0862,-252 845.0862,-216 1002.9138,-216 1002.9138,-252"/>
<text text-anchor="middle" x="924" y="-229.8" font-family="Times,serif" font-size="14.00" fill="#000000">TaskPreviewComponent </text>
</g>
<!-- TaskModule&#45;&gt;TaskPreviewComponent  -->
<g id="edge21" class="edge">
<title>TaskModule&#45;&gt;TaskPreviewComponent </title>
<path fill="none" stroke="#000000" stroke-dasharray="5,2" d="M1200.5088,-180C1117.5552,-180 944.9038,-180 944.9038,-180 944.9038,-180 944.9038,-205.7181 944.9038,-205.7181"/>
<polygon fill="#000000" stroke="#000000" points="941.4038,-205.718 944.9038,-215.7181 948.4038,-205.7181 941.4038,-205.718"/>
</g>
<!-- CoreModule -->
<g id="node14" class="node">
<title>CoreModule</title>
<polygon fill="#8dd3c7" stroke="#000000" points="507.2619,-122 504.2619,-126 483.2619,-126 480.2619,-122 420.7381,-122 420.7381,-86 507.2619,-86 507.2619,-122"/>
<text text-anchor="middle" x="464" y="-99.8" font-family="Times,serif" font-size="14.00" fill="#000000">CoreModule</text>
</g>
<!-- CoreModule&#45;&gt;TaskModule -->
<g id="edge13" class="edge">
<title>CoreModule&#45;&gt;TaskModule</title>
<path fill="none" stroke="#000000" d="M464,-122.2667C464,-140.5552 464,-166 464,-166 464,-166 1190.673,-166 1190.673,-166"/>
<polygon fill="#000000" stroke="#000000" points="1190.673,-169.5001 1200.673,-166 1190.673,-162.5001 1190.673,-169.5001"/>
</g>
<!-- SharedModule -->
<g id="node15" class="node">
<title>SharedModule</title>
<polygon fill="#8dd3c7" stroke="#000000" points="402.4231,-122 399.4231,-126 378.4231,-126 375.4231,-122 303.5769,-122 303.5769,-86 402.4231,-86 402.4231,-122"/>
<text text-anchor="middle" x="353" y="-99.8" font-family="Times,serif" font-size="14.00" fill="#000000">SharedModule</text>
</g>
<!-- SharedModule&#45;&gt;TaskModule -->
<g id="edge14" class="edge">
<title>SharedModule&#45;&gt;TaskModule</title>
<path fill="none" stroke="#000000" d="M353,-122.1061C353,-141.3391 353,-169 353,-169 353,-169 1190.7241,-169 1190.7241,-169"/>
<polygon fill="#000000" stroke="#000000" points="1190.7241,-172.5001 1200.7241,-169 1190.7241,-165.5001 1190.7241,-172.5001"/>
</g>
<!-- TaskGridModule -->
<g id="node16" class="node">
<title>TaskGridModule</title>
<polygon fill="#8dd3c7" stroke="#000000" points="286.4202,-122 283.4202,-126 262.4202,-126 259.4202,-122 173.5798,-122 173.5798,-86 286.4202,-86 286.4202,-122"/>
<text text-anchor="middle" x="230" y="-99.8" font-family="Times,serif" font-size="14.00" fill="#000000">TaskGridModule</text>
</g>
<!-- TaskGridModule&#45;&gt;TaskModule -->
<g id="edge15" class="edge">
<title>TaskGridModule&#45;&gt;TaskModule</title>
<path fill="none" stroke="#000000" d="M230,-122.1289C230,-142.5724 230,-173 230,-173 230,-173 1190.4297,-173 1190.4297,-173"/>
<polygon fill="#000000" stroke="#000000" points="1190.4297,-176.5001 1200.4297,-173 1190.4297,-169.5001 1190.4297,-176.5001"/>
</g>
<!-- TaskRoutingModule -->
<g id="node17" class="node">
<title>TaskRoutingModule</title>
<polygon fill="#8dd3c7" stroke="#000000" points="155.8795,-122 152.8795,-126 131.8795,-126 128.8795,-122 24.1205,-122 24.1205,-86 155.8795,-86 155.8795,-122"/>
<text text-anchor="middle" x="90" y="-99.8" font-family="Times,serif" font-size="14.00" fill="#000000">TaskRoutingModule</text>
</g>
<!-- TaskRoutingModule&#45;&gt;TaskModule -->
<g id="edge16" class="edge">
<title>TaskRoutingModule&#45;&gt;TaskModule</title>
<path fill="none" stroke="#000000" d="M90,-122.0449C90,-143.6623 90,-177 90,-177 90,-177 1190.5201,-177 1190.5201,-177"/>
<polygon fill="#000000" stroke="#000000" points="1190.5202,-180.5001 1200.5201,-177 1190.5201,-173.5001 1190.5202,-180.5001"/>
</g>
</g>
</svg>
