<?xml version="1.0" encoding="UTF-8" standalone="no"?>
<!DOCTYPE svg PUBLIC "-//W3C//DTD SVG 1.1//EN"
 "http://www.w3.org/Graphics/SVG/1.1/DTD/svg11.dtd">
<!-- Generated by graphviz version 2.40.1 (20161225.0304)
 -->
<!-- Title: dependencies Pages: 1 -->
<svg width="512pt" height="211pt"
 viewBox="0.00 0.00 512.00 211.00" xmlns="http://www.w3.org/2000/svg" xmlns:xlink="http://www.w3.org/1999/xlink">
<g id="graph0" class="graph" transform="scale(1 1) rotate(0) translate(4 207)">
<title>dependencies</title>
<polygon fill="#ffffff" stroke="transparent" points="-4,4 -4,-207 508,-207 508,4 -4,4"/>
<text text-anchor="start" x="231.0091" y="-42.4" font-family="sans-serif" font-weight="bold" font-size="14.00" fill="#000000">Legend</text>
<polygon fill="#ffffb3" stroke="transparent" points="18,-10 18,-30 38,-30 38,-10 18,-10"/>
<text text-anchor="start" x="41.629" y="-15.4" font-family="sans-serif" font-size="14.00" fill="#000000"> &#160;Declarations</text>
<polygon fill="#8dd3c7" stroke="transparent" points="131,-10 131,-30 151,-30 151,-10 131,-10"/>
<text text-anchor="start" x="154.7251" y="-15.4" font-family="sans-serif" font-size="14.00" fill="#000000"> &#160;Module</text>
<polygon fill="#80b1d3" stroke="transparent" points="217,-10 217,-30 237,-30 237,-10 217,-10"/>
<text text-anchor="start" x="240.7812" y="-15.4" font-family="sans-serif" font-size="14.00" fill="#000000"> &#160;Bootstrap</text>
<polygon fill="#fdb462" stroke="transparent" points="314,-10 314,-30 334,-30 334,-10 314,-10"/>
<text text-anchor="start" x="337.6732" y="-15.4" font-family="sans-serif" font-size="14.00" fill="#000000"> &#160;Providers</text>
<polygon fill="#fb8072" stroke="transparent" points="410,-10 410,-30 430,-30 430,-10 410,-10"/>
<text text-anchor="start" x="433.7258" y="-15.4" font-family="sans-serif" font-size="14.00" fill="#000000"> &#160;Exports</text>
<g id="clust1" class="cluster">
<title>cluster_KanbanModule</title>
<polygon fill="none" stroke="#000000" stroke-dasharray="1,5" points="8,-70 8,-195 496,-195 496,-70 8,-70"/>
</g>
<g id="clust2" class="cluster">
<title>cluster_KanbanModule_declarations</title>
<polygon fill="none" stroke="#000000" points="348,-78 348,-130 488,-130 488,-78 348,-78"/>
</g>
<g id="clust4" class="cluster">
<title>cluster_KanbanModule_imports</title>
<polygon fill="none" stroke="#000000" points="16,-78 16,-130 340,-130 340,-78 16,-78"/>
</g>
<!-- KanbanComponent -->
<g id="node1" class="node">
<title>KanbanComponent</title>
<polygon fill="#ffffb3" stroke="#000000" points="480.3683,-122 355.6317,-122 355.6317,-86 480.3683,-86 480.3683,-122"/>
<text text-anchor="middle" x="418" y="-99.8" font-family="Times,serif" font-size="14.00" fill="#000000">KanbanComponent</text>
</g>
<!-- KanbanModule -->
<g id="node2" class="node">
<title>KanbanModule</title>
<polygon fill="#8dd3c7" stroke="#000000" points="284.5856,-187 281.5856,-191 260.5856,-191 257.5856,-187 181.4144,-187 181.4144,-151 284.5856,-151 284.5856,-187"/>
<text text-anchor="middle" x="233" y="-164.8" font-family="Times,serif" font-size="14.00" fill="#000000">KanbanModule</text>
</g>
<!-- KanbanComponent&#45;&gt;KanbanModule -->
<g id="edge1" class="edge">
<title>KanbanComponent&#45;&gt;KanbanModule</title>
<path fill="none" stroke="#000000" d="M418,-122.1061C418,-141.3391 418,-169 418,-169 418,-169 295.0251,-169 295.0251,-169"/>
<polygon fill="#000000" stroke="#000000" points="295.0252,-165.5001 285.0251,-169 295.0251,-172.5001 295.0252,-165.5001"/>
</g>
<!-- CoreModule -->
<g id="node3" class="node">
<title>CoreModule</title>
<polygon fill="#8dd3c7" stroke="#000000" points="332.2619,-122 329.2619,-126 308.2619,-126 305.2619,-122 245.7381,-122 245.7381,-86 332.2619,-86 332.2619,-122"/>
<text text-anchor="middle" x="289" y="-99.8" font-family="Times,serif" font-size="14.00" fill="#000000">CoreModule</text>
</g>
<!-- CoreModule&#45;&gt;KanbanModule -->
<g id="edge2" class="edge">
<title>CoreModule&#45;&gt;KanbanModule</title>
<path fill="none" stroke="#000000" d="M265.081,-122.1061C265.081,-122.1061 265.081,-140.991 265.081,-140.991"/>
<polygon fill="#000000" stroke="#000000" points="261.5811,-140.9909 265.081,-150.991 268.5811,-140.991 261.5811,-140.9909"/>
</g>
<!-- SharedModule -->
<g id="node4" class="node">
<title>SharedModule</title>
<polygon fill="#8dd3c7" stroke="#000000" points="227.4231,-122 224.4231,-126 203.4231,-126 200.4231,-122 128.5769,-122 128.5769,-86 227.4231,-86 227.4231,-122"/>
<text text-anchor="middle" x="178" y="-99.8" font-family="Times,serif" font-size="14.00" fill="#000000">SharedModule</text>
</g>
<!-- SharedModule&#45;&gt;KanbanModule -->
<g id="edge3" class="edge">
<title>SharedModule&#45;&gt;KanbanModule</title>
<path fill="none" stroke="#000000" d="M204.3342,-122.1061C204.3342,-122.1061 204.3342,-140.991 204.3342,-140.991"/>
<polygon fill="#000000" stroke="#000000" points="200.8342,-140.9909 204.3342,-150.991 207.8342,-140.991 200.8342,-140.9909"/>
</g>
<!-- TaskModule -->
<g id="node5" class="node">
<title>TaskModule</title>
<polygon fill="#8dd3c7" stroke="#000000" points="110.2619,-122 107.2619,-126 86.2619,-126 83.2619,-122 23.7381,-122 23.7381,-86 110.2619,-86 110.2619,-122"/>
<text text-anchor="middle" x="67" y="-99.8" font-family="Times,serif" font-size="14.00" fill="#000000">TaskModule</text>
</g>
<!-- TaskModule&#45;&gt;KanbanModule -->
<g id="edge4" class="edge">
<title>TaskModule&#45;&gt;KanbanModule</title>
<path fill="none" stroke="#000000" d="M67,-122.1061C67,-141.3391 67,-169 67,-169 67,-169 171.3865,-169 171.3865,-169"/>
<polygon fill="#000000" stroke="#000000" points="171.3865,-172.5001 181.3865,-169 171.3865,-165.5001 171.3865,-172.5001"/>
</g>
</g>
</svg>
