<?xml version="1.0" encoding="UTF-8" standalone="no"?>
<!DOCTYPE svg PUBLIC "-//W3C//DTD SVG 1.1//EN"
 "http://www.w3.org/Graphics/SVG/1.1/DTD/svg11.dtd">
<!-- Generated by graphviz version 2.40.1 (20161225.0304)
 -->
<!-- Title: dependencies Pages: 1 -->
<svg width="504pt" height="284pt"
 viewBox="0.00 0.00 504.00 284.00" xmlns="http://www.w3.org/2000/svg" xmlns:xlink="http://www.w3.org/1999/xlink">
<g id="graph0" class="graph" transform="scale(1 1) rotate(0) translate(4 280)">
<title>dependencies</title>
<polygon fill="#ffffff" stroke="transparent" points="-4,4 -4,-280 500,-280 500,4 -4,4"/>
<text text-anchor="start" x="227.0091" y="-42.4" font-family="sans-serif" font-weight="bold" font-size="14.00" fill="#000000">Legend</text>
<polygon fill="#ffffb3" stroke="transparent" points="14,-10 14,-30 34,-30 34,-10 14,-10"/>
<text text-anchor="start" x="37.629" y="-15.4" font-family="sans-serif" font-size="14.00" fill="#000000"> &#160;Declarations</text>
<polygon fill="#8dd3c7" stroke="transparent" points="127,-10 127,-30 147,-30 147,-10 127,-10"/>
<text text-anchor="start" x="150.7251" y="-15.4" font-family="sans-serif" font-size="14.00" fill="#000000"> &#160;Module</text>
<polygon fill="#80b1d3" stroke="transparent" points="213,-10 213,-30 233,-30 233,-10 213,-10"/>
<text text-anchor="start" x="236.7812" y="-15.4" font-family="sans-serif" font-size="14.00" fill="#000000"> &#160;Bootstrap</text>
<polygon fill="#fdb462" stroke="transparent" points="310,-10 310,-30 330,-30 330,-10 310,-10"/>
<text text-anchor="start" x="333.6732" y="-15.4" font-family="sans-serif" font-size="14.00" fill="#000000"> &#160;Providers</text>
<polygon fill="#fb8072" stroke="transparent" points="406,-10 406,-30 426,-30 426,-10 406,-10"/>
<text text-anchor="start" x="429.7258" y="-15.4" font-family="sans-serif" font-size="14.00" fill="#000000"> &#160;Exports</text>
<g id="clust1" class="cluster">
<title>cluster_PageNotFoundModule</title>
<polygon fill="none" stroke="#000000" stroke-dasharray="1,5" points="35.5,-70 35.5,-268 460.5,-268 460.5,-70 35.5,-70"/>
</g>
<g id="clust2" class="cluster">
<title>cluster_PageNotFoundModule_declarations</title>
<polygon fill="none" stroke="#000000" points="270.5,-78 270.5,-130 452.5,-130 452.5,-78 270.5,-78"/>
</g>
<g id="clust4" class="cluster">
<title>cluster_PageNotFoundModule_imports</title>
<polygon fill="none" stroke="#000000" points="43.5,-78 43.5,-130 262.5,-130 262.5,-78 43.5,-78"/>
</g>
<g id="clust5" class="cluster">
<title>cluster_PageNotFoundModule_exports</title>
<polygon fill="none" stroke="#000000" points="119.5,-208 119.5,-260 303.5,-260 303.5,-208 119.5,-208"/>
</g>
<!-- PageNotFoundComponent -->
<g id="node1" class="node">
<title>PageNotFoundComponent</title>
<polygon fill="#ffffb3" stroke="#000000" points="444.3243,-122 278.6757,-122 278.6757,-86 444.3243,-86 444.3243,-122"/>
<text text-anchor="middle" x="361.5" y="-99.8" font-family="Times,serif" font-size="14.00" fill="#000000">PageNotFoundComponent</text>
</g>
<!-- PageNotFoundModule -->
<g id="node2" class="node">
<title>PageNotFoundModule</title>
<polygon fill="#8dd3c7" stroke="#000000" points="283.0421,-187 280.0421,-191 259.0421,-191 256.0421,-187 139.9579,-187 139.9579,-151 283.0421,-151 283.0421,-187"/>
<text text-anchor="middle" x="211.5" y="-164.8" font-family="Times,serif" font-size="14.00" fill="#000000">PageNotFoundModule</text>
</g>
<!-- PageNotFoundComponent&#45;&gt;PageNotFoundModule -->
<g id="edge1" class="edge">
<title>PageNotFoundComponent&#45;&gt;PageNotFoundModule</title>
<path fill="none" stroke="#000000" d="M289.5914,-122.1061C289.5914,-141.3391 289.5914,-169 289.5914,-169 289.5914,-169 288.9523,-169 288.9523,-169"/>
<polygon fill="#000000" stroke="#000000" points="293.2009,-165.5002 283.2008,-169 293.2007,-172.5002 293.2009,-165.5002"/>
</g>
<!-- PageNotFoundComponent  -->
<g id="node5" class="node">
<title>PageNotFoundComponent </title>
<polygon fill="#fb8072" stroke="#000000" points="295.8241,-252 127.1759,-252 127.1759,-216 295.8241,-216 295.8241,-252"/>
<text text-anchor="middle" x="211.5" y="-229.8" font-family="Times,serif" font-size="14.00" fill="#000000">PageNotFoundComponent </text>
</g>
<!-- PageNotFoundModule&#45;&gt;PageNotFoundComponent  -->
<g id="edge4" class="edge">
<title>PageNotFoundModule&#45;&gt;PageNotFoundComponent </title>
<path fill="none" stroke="#000000" stroke-dasharray="5,2" d="M211.5,-187.1061C211.5,-187.1061 211.5,-205.991 211.5,-205.991"/>
<polygon fill="#000000" stroke="#000000" points="208.0001,-205.9909 211.5,-215.991 215.0001,-205.991 208.0001,-205.9909"/>
</g>
<!-- CoreModule -->
<g id="node3" class="node">
<title>CoreModule</title>
<polygon fill="#8dd3c7" stroke="#000000" points="254.7619,-122 251.7619,-126 230.7619,-126 227.7619,-122 168.2381,-122 168.2381,-86 254.7619,-86 254.7619,-122"/>
<text text-anchor="middle" x="211.5" y="-99.8" font-family="Times,serif" font-size="14.00" fill="#000000">CoreModule</text>
</g>
<!-- CoreModule&#45;&gt;PageNotFoundModule -->
<g id="edge2" class="edge">
<title>CoreModule&#45;&gt;PageNotFoundModule</title>
<path fill="none" stroke="#000000" d="M211.5,-122.1061C211.5,-122.1061 211.5,-140.991 211.5,-140.991"/>
<polygon fill="#000000" stroke="#000000" points="208.0001,-140.9909 211.5,-150.991 215.0001,-140.991 208.0001,-140.9909"/>
</g>
<!-- SharedModule -->
<g id="node4" class="node">
<title>SharedModule</title>
<polygon fill="#8dd3c7" stroke="#000000" points="149.9231,-122 146.9231,-126 125.9231,-126 122.9231,-122 51.0769,-122 51.0769,-86 149.9231,-86 149.9231,-122"/>
<text text-anchor="middle" x="100.5" y="-99.8" font-family="Times,serif" font-size="14.00" fill="#000000">SharedModule</text>
</g>
<!-- SharedModule&#45;&gt;PageNotFoundModule -->
<g id="edge3" class="edge">
<title>SharedModule&#45;&gt;PageNotFoundModule</title>
<path fill="none" stroke="#000000" d="M144.7202,-122.1061C144.7202,-122.1061 144.7202,-140.991 144.7202,-140.991"/>
<polygon fill="#000000" stroke="#000000" points="141.2203,-140.9909 144.7202,-150.991 148.2203,-140.991 141.2203,-140.9909"/>
</g>
</g>
</svg>
