<?xml version="1.0" encoding="UTF-8" standalone="no"?>
<!DOCTYPE svg PUBLIC "-//W3C//DTD SVG 1.1//EN"
 "http://www.w3.org/Graphics/SVG/1.1/DTD/svg11.dtd">
<!-- Generated by graphviz version 2.40.1 (20161225.0304)
 -->
<!-- Title: dependencies Pages: 1 -->
<svg width="741pt" height="284pt"
 viewBox="0.00 0.00 741.00 284.00" xmlns="http://www.w3.org/2000/svg" xmlns:xlink="http://www.w3.org/1999/xlink">
<g id="graph0" class="graph" transform="scale(1 1) rotate(0) translate(4 280)">
<title>dependencies</title>
<polygon fill="#ffffff" stroke="transparent" points="-4,4 -4,-280 737,-280 737,4 -4,4"/>
<text text-anchor="start" x="345.5091" y="-42.4" font-family="sans-serif" font-weight="bold" font-size="14.00" fill="#000000">Legend</text>
<polygon fill="#ffffb3" stroke="transparent" points="132.5,-10 132.5,-30 152.5,-30 152.5,-10 132.5,-10"/>
<text text-anchor="start" x="156.129" y="-15.4" font-family="sans-serif" font-size="14.00" fill="#000000"> &#160;Declarations</text>
<polygon fill="#8dd3c7" stroke="transparent" points="245.5,-10 245.5,-30 265.5,-30 265.5,-10 245.5,-10"/>
<text text-anchor="start" x="269.2251" y="-15.4" font-family="sans-serif" font-size="14.00" fill="#000000"> &#160;Module</text>
<polygon fill="#80b1d3" stroke="transparent" points="331.5,-10 331.5,-30 351.5,-30 351.5,-10 331.5,-10"/>
<text text-anchor="start" x="355.2812" y="-15.4" font-family="sans-serif" font-size="14.00" fill="#000000"> &#160;Bootstrap</text>
<polygon fill="#fdb462" stroke="transparent" points="428.5,-10 428.5,-30 448.5,-30 448.5,-10 428.5,-10"/>
<text text-anchor="start" x="452.1732" y="-15.4" font-family="sans-serif" font-size="14.00" fill="#000000"> &#160;Providers</text>
<polygon fill="#fb8072" stroke="transparent" points="524.5,-10 524.5,-30 544.5,-30 544.5,-10 524.5,-10"/>
<text text-anchor="start" x="548.2258" y="-15.4" font-family="sans-serif" font-size="14.00" fill="#000000"> &#160;Exports</text>
<g id="clust1" class="cluster">
<title>cluster_AppModule</title>
<polygon fill="none" stroke="#000000" stroke-dasharray="1,5" points="8,-70 8,-268 725,-268 725,-70 8,-70"/>
</g>
<g id="clust2" class="cluster">
<title>cluster_AppModule_declarations</title>
<polygon fill="none" stroke="#000000" points="595,-78 595,-130 717,-130 717,-78 595,-78"/>
</g>
<g id="clust4" class="cluster">
<title>cluster_AppModule_imports</title>
<polygon fill="none" stroke="#000000" points="16,-78 16,-130 587,-130 587,-78 16,-78"/>
</g>
<g id="clust6" class="cluster">
<title>cluster_AppModule_bootstrap</title>
<polygon fill="none" stroke="#000000" points="277,-208 277,-260 401,-260 401,-208 277,-208"/>
</g>
<!-- AppComponent -->
<g id="node1" class="node">
<title>AppComponent</title>
<polygon fill="#ffffb3" stroke="#000000" points="708.9399,-122 603.0601,-122 603.0601,-86 708.9399,-86 708.9399,-122"/>
<text text-anchor="middle" x="656" y="-99.8" font-family="Times,serif" font-size="14.00" fill="#000000">AppComponent</text>
</g>
<!-- AppModule -->
<g id="node2" class="node">
<title>AppModule</title>
<polygon fill="#8dd3c7" stroke="#000000" points="380.6571,-187 377.6571,-191 356.6571,-191 353.6571,-187 297.3429,-187 297.3429,-151 380.6571,-151 380.6571,-187"/>
<text text-anchor="middle" x="339" y="-164.8" font-family="Times,serif" font-size="14.00" fill="#000000">AppModule</text>
</g>
<!-- AppComponent&#45;&gt;AppModule -->
<g id="edge1" class="edge">
<title>AppComponent&#45;&gt;AppModule</title>
<path fill="none" stroke="#000000" d="M656,-122.2843C656,-143.3211 656,-175 656,-175 656,-175 390.7682,-175 390.7682,-175"/>
<polygon fill="#000000" stroke="#000000" points="390.7682,-171.5001 380.7682,-175 390.7682,-178.5001 390.7682,-171.5001"/>
</g>
<!-- AppComponent  -->
<g id="node8" class="node">
<title>AppComponent </title>
<polygon fill="#80b1d3" stroke="#000000" points="393.439,-252 284.561,-252 284.561,-216 393.439,-216 393.439,-252"/>
<text text-anchor="middle" x="339" y="-229.8" font-family="Times,serif" font-size="14.00" fill="#000000">AppComponent </text>
</g>
<!-- AppModule&#45;&gt;AppComponent  -->
<g id="edge7" class="edge">
<title>AppModule&#45;&gt;AppComponent </title>
<path fill="none" stroke="#000000" stroke-dasharray="1,5" d="M339,-187.1061C339,-187.1061 339,-205.991 339,-205.991"/>
<polygon fill="#000000" stroke="#000000" points="335.5001,-205.9909 339,-215.991 342.5001,-205.991 335.5001,-205.9909"/>
</g>
<!-- AppRoutingModule -->
<g id="node3" class="node">
<title>AppRoutingModule</title>
<polygon fill="#8dd3c7" stroke="#000000" points="579.2744,-122 576.2744,-126 555.2744,-126 552.2744,-122 450.7256,-122 450.7256,-86 579.2744,-86 579.2744,-122"/>
<text text-anchor="middle" x="515" y="-99.8" font-family="Times,serif" font-size="14.00" fill="#000000">AppRoutingModule</text>
</g>
<!-- AppRoutingModule&#45;&gt;AppModule -->
<g id="edge2" class="edge">
<title>AppRoutingModule&#45;&gt;AppModule</title>
<path fill="none" stroke="#000000" d="M515,-122.0225C515,-139.3734 515,-163 515,-163 515,-163 390.7095,-163 390.7095,-163"/>
<polygon fill="#000000" stroke="#000000" points="390.7096,-159.5001 380.7095,-163 390.7095,-166.5001 390.7096,-159.5001"/>
</g>
<!-- CoreModule -->
<g id="node4" class="node">
<title>CoreModule</title>
<polygon fill="#8dd3c7" stroke="#000000" points="432.2619,-122 429.2619,-126 408.2619,-126 405.2619,-122 345.7381,-122 345.7381,-86 432.2619,-86 432.2619,-122"/>
<text text-anchor="middle" x="389" y="-99.8" font-family="Times,serif" font-size="14.00" fill="#000000">CoreModule</text>
</g>
<!-- CoreModule&#45;&gt;AppModule -->
<g id="edge3" class="edge">
<title>CoreModule&#45;&gt;AppModule</title>
<path fill="none" stroke="#000000" d="M363.2237,-122.1061C363.2237,-122.1061 363.2237,-140.991 363.2237,-140.991"/>
<polygon fill="#000000" stroke="#000000" points="359.7238,-140.9909 363.2237,-150.991 366.7238,-140.991 359.7238,-140.9909"/>
</g>
<!-- GTModule -->
<g id="node5" class="node">
<title>GTModule</title>
<polygon fill="#8dd3c7" stroke="#000000" points="328.2093,-122 325.2093,-126 304.2093,-126 301.2093,-122 249.7907,-122 249.7907,-86 328.2093,-86 328.2093,-122"/>
<text text-anchor="middle" x="289" y="-99.8" font-family="Times,serif" font-size="14.00" fill="#000000">GTModule</text>
</g>
<!-- GTModule&#45;&gt;AppModule -->
<g id="edge4" class="edge">
<title>GTModule&#45;&gt;AppModule</title>
<path fill="none" stroke="#000000" d="M312.6382,-122.1061C312.6382,-122.1061 312.6382,-140.991 312.6382,-140.991"/>
<polygon fill="#000000" stroke="#000000" points="309.1382,-140.9909 312.6382,-150.991 316.1382,-140.991 309.1382,-140.9909"/>
</g>
<!-- SharedModule -->
<g id="node6" class="node">
<title>SharedModule</title>
<polygon fill="#8dd3c7" stroke="#000000" points="232.4231,-122 229.4231,-126 208.4231,-126 205.4231,-122 133.5769,-122 133.5769,-86 232.4231,-86 232.4231,-122"/>
<text text-anchor="middle" x="183" y="-99.8" font-family="Times,serif" font-size="14.00" fill="#000000">SharedModule</text>
</g>
<!-- SharedModule&#45;&gt;AppModule -->
<g id="edge5" class="edge">
<title>SharedModule&#45;&gt;AppModule</title>
<path fill="none" stroke="#000000" d="M183,-122.0225C183,-139.3734 183,-163 183,-163 183,-163 287.1949,-163 287.1949,-163"/>
<polygon fill="#000000" stroke="#000000" points="287.1949,-166.5001 297.1949,-163 287.1948,-159.5001 287.1949,-166.5001"/>
</g>
<!-- TeamModule -->
<g id="node7" class="node">
<title>TeamModule</title>
<polygon fill="#8dd3c7" stroke="#000000" points="115.9232,-122 112.9232,-126 91.9232,-126 88.9232,-122 24.0768,-122 24.0768,-86 115.9232,-86 115.9232,-122"/>
<text text-anchor="middle" x="70" y="-99.8" font-family="Times,serif" font-size="14.00" fill="#000000">TeamModule</text>
</g>
<!-- TeamModule&#45;&gt;AppModule -->
<g id="edge6" class="edge">
<title>TeamModule&#45;&gt;AppModule</title>
<path fill="none" stroke="#000000" d="M70,-122.2843C70,-143.3211 70,-175 70,-175 70,-175 287.2639,-175 287.2639,-175"/>
<polygon fill="#000000" stroke="#000000" points="287.2639,-178.5001 297.2639,-175 287.2639,-171.5001 287.2639,-178.5001"/>
</g>
</g>
</svg>
