<?xml version="1.0" encoding="UTF-8" standalone="no"?>
<!DOCTYPE svg PUBLIC "-//W3C//DTD SVG 1.1//EN"
 "http://www.w3.org/Graphics/SVG/1.1/DTD/svg11.dtd">
<!-- Generated by graphviz version 2.40.1 (20161225.0304)
 -->
<!-- Title: dependencies Pages: 1 -->
<svg width="1273pt" height="284pt"
 viewBox="0.00 0.00 1273.00 284.00" xmlns="http://www.w3.org/2000/svg" xmlns:xlink="http://www.w3.org/1999/xlink">
<g id="graph0" class="graph" transform="scale(1 1) rotate(0) translate(4 280)">
<title>dependencies</title>
<polygon fill="#ffffff" stroke="transparent" points="-4,4 -4,-280 1269,-280 1269,4 -4,4"/>
<text text-anchor="start" x="611.5091" y="-42.4" font-family="sans-serif" font-weight="bold" font-size="14.00" fill="#000000">Legend</text>
<polygon fill="#ffffb3" stroke="transparent" points="398.5,-10 398.5,-30 418.5,-30 418.5,-10 398.5,-10"/>
<text text-anchor="start" x="422.129" y="-15.4" font-family="sans-serif" font-size="14.00" fill="#000000"> &#160;Declarations</text>
<polygon fill="#8dd3c7" stroke="transparent" points="511.5,-10 511.5,-30 531.5,-30 531.5,-10 511.5,-10"/>
<text text-anchor="start" x="535.2251" y="-15.4" font-family="sans-serif" font-size="14.00" fill="#000000"> &#160;Module</text>
<polygon fill="#80b1d3" stroke="transparent" points="597.5,-10 597.5,-30 617.5,-30 617.5,-10 597.5,-10"/>
<text text-anchor="start" x="621.2812" y="-15.4" font-family="sans-serif" font-size="14.00" fill="#000000"> &#160;Bootstrap</text>
<polygon fill="#fdb462" stroke="transparent" points="694.5,-10 694.5,-30 714.5,-30 714.5,-10 694.5,-10"/>
<text text-anchor="start" x="718.1732" y="-15.4" font-family="sans-serif" font-size="14.00" fill="#000000"> &#160;Providers</text>
<polygon fill="#fb8072" stroke="transparent" points="790.5,-10 790.5,-30 810.5,-30 810.5,-10 790.5,-10"/>
<text text-anchor="start" x="814.2258" y="-15.4" font-family="sans-serif" font-size="14.00" fill="#000000"> &#160;Exports</text>
<g id="clust1" class="cluster">
<title>cluster_ProjectModule</title>
<polygon fill="none" stroke="#000000" stroke-dasharray="1,5" points="8,-70 8,-268 1257,-268 1257,-70 8,-70"/>
</g>
<g id="clust2" class="cluster">
<title>cluster_ProjectModule_declarations</title>
<polygon fill="none" stroke="#000000" points="693,-78 693,-130 1249,-130 1249,-78 693,-78"/>
</g>
<g id="clust6" class="cluster">
<title>cluster_ProjectModule_imports</title>
<polygon fill="none" stroke="#000000" points="174,-78 174,-130 685,-130 685,-78 174,-78"/>
</g>
<g id="clust7" class="cluster">
<title>cluster_ProjectModule_exports</title>
<polygon fill="none" stroke="#000000" points="453,-208 453,-260 681,-260 681,-208 453,-208"/>
</g>
<g id="clust9" class="cluster">
<title>cluster_ProjectModule_providers</title>
<polygon fill="none" stroke="#000000" points="16,-78 16,-130 166,-130 166,-78 16,-78"/>
</g>
<!-- ProjectFormComponent -->
<g id="node1" class="node">
<title>ProjectFormComponent</title>
<polygon fill="#ffffb3" stroke="#000000" points="1240.8201,-122 1089.1799,-122 1089.1799,-86 1240.8201,-86 1240.8201,-122"/>
<text text-anchor="middle" x="1165" y="-99.8" font-family="Times,serif" font-size="14.00" fill="#000000">ProjectFormComponent</text>
</g>
<!-- ProjectModule -->
<g id="node4" class="node">
<title>ProjectModule</title>
<polygon fill="#8dd3c7" stroke="#000000" points="616.7036,-187 613.7036,-191 592.7036,-191 589.7036,-187 517.2964,-187 517.2964,-151 616.7036,-151 616.7036,-187"/>
<text text-anchor="middle" x="567" y="-164.8" font-family="Times,serif" font-size="14.00" fill="#000000">ProjectModule</text>
</g>
<!-- ProjectFormComponent&#45;&gt;ProjectModule -->
<g id="edge1" class="edge">
<title>ProjectFormComponent&#45;&gt;ProjectModule</title>
<path fill="none" stroke="#000000" d="M1165,-122.2921C1165,-144.2057 1165,-178 1165,-178 1165,-178 626.7008,-178 626.7008,-178"/>
<polygon fill="#000000" stroke="#000000" points="626.7009,-174.5001 616.7008,-178 626.7008,-181.5001 626.7009,-174.5001"/>
</g>
<!-- ProjectInfoComponent -->
<g id="node2" class="node">
<title>ProjectInfoComponent</title>
<polygon fill="#ffffb3" stroke="#000000" points="1071.3075,-122 926.6925,-122 926.6925,-86 1071.3075,-86 1071.3075,-122"/>
<text text-anchor="middle" x="999" y="-99.8" font-family="Times,serif" font-size="14.00" fill="#000000">ProjectInfoComponent</text>
</g>
<!-- ProjectInfoComponent&#45;&gt;ProjectModule -->
<g id="edge2" class="edge">
<title>ProjectInfoComponent&#45;&gt;ProjectModule</title>
<path fill="none" stroke="#000000" d="M999,-122.1061C999,-141.3391 999,-169 999,-169 999,-169 626.9779,-169 626.9779,-169"/>
<polygon fill="#000000" stroke="#000000" points="626.978,-165.5001 616.9779,-169 626.9779,-172.5001 626.978,-165.5001"/>
</g>
<!-- UserProjectDashboardComponent -->
<g id="node3" class="node">
<title>UserProjectDashboardComponent</title>
<polygon fill="#ffffb3" stroke="#000000" points="909.0534,-122 700.9466,-122 700.9466,-86 909.0534,-86 909.0534,-122"/>
<text text-anchor="middle" x="805" y="-99.8" font-family="Times,serif" font-size="14.00" fill="#000000">UserProjectDashboardComponent</text>
</g>
<!-- UserProjectDashboardComponent&#45;&gt;ProjectModule -->
<g id="edge3" class="edge">
<title>UserProjectDashboardComponent&#45;&gt;ProjectModule</title>
<path fill="none" stroke="#000000" d="M805,-122.027C805,-138.3976 805,-160 805,-160 805,-160 626.6029,-160 626.6029,-160"/>
<polygon fill="#000000" stroke="#000000" points="626.6029,-156.5001 616.6029,-160 626.6029,-163.5001 626.6029,-156.5001"/>
</g>
<!-- UserProjectDashboardComponent  -->
<g id="node9" class="node">
<title>UserProjectDashboardComponent </title>
<polygon fill="#fb8072" stroke="#000000" points="672.5539,-252 461.4461,-252 461.4461,-216 672.5539,-216 672.5539,-252"/>
<text text-anchor="middle" x="567" y="-229.8" font-family="Times,serif" font-size="14.00" fill="#000000">UserProjectDashboardComponent </text>
</g>
<!-- ProjectModule&#45;&gt;UserProjectDashboardComponent  -->
<g id="edge8" class="edge">
<title>ProjectModule&#45;&gt;UserProjectDashboardComponent </title>
<path fill="none" stroke="#000000" stroke-dasharray="5,2" d="M567,-187.1061C567,-187.1061 567,-205.991 567,-205.991"/>
<polygon fill="#000000" stroke="#000000" points="563.5001,-205.9909 567,-215.991 570.5001,-205.991 563.5001,-205.9909"/>
</g>
<!-- CoreModule -->
<g id="node5" class="node">
<title>CoreModule</title>
<polygon fill="#8dd3c7" stroke="#000000" points="677.2619,-122 674.2619,-126 653.2619,-126 650.2619,-122 590.7381,-122 590.7381,-86 677.2619,-86 677.2619,-122"/>
<text text-anchor="middle" x="634" y="-99.8" font-family="Times,serif" font-size="14.00" fill="#000000">CoreModule</text>
</g>
<!-- CoreModule&#45;&gt;ProjectModule -->
<g id="edge4" class="edge">
<title>CoreModule&#45;&gt;ProjectModule</title>
<path fill="none" stroke="#000000" d="M603.6104,-122.1061C603.6104,-122.1061 603.6104,-140.991 603.6104,-140.991"/>
<polygon fill="#000000" stroke="#000000" points="600.1105,-140.9909 603.6104,-150.991 607.1105,-140.991 600.1105,-140.9909"/>
</g>
<!-- ProjectRoutingModule -->
<g id="node6" class="node">
<title>ProjectRoutingModule</title>
<polygon fill="#8dd3c7" stroke="#000000" points="572.3216,-122 569.3216,-126 548.3216,-126 545.3216,-122 427.6784,-122 427.6784,-86 572.3216,-86 572.3216,-122"/>
<text text-anchor="middle" x="500" y="-99.8" font-family="Times,serif" font-size="14.00" fill="#000000">ProjectRoutingModule</text>
</g>
<!-- ProjectRoutingModule&#45;&gt;ProjectModule -->
<g id="edge5" class="edge">
<title>ProjectRoutingModule&#45;&gt;ProjectModule</title>
<path fill="none" stroke="#000000" d="M544.7795,-122.1061C544.7795,-122.1061 544.7795,-140.991 544.7795,-140.991"/>
<polygon fill="#000000" stroke="#000000" points="541.2795,-140.9909 544.7795,-150.991 548.2795,-140.991 541.2795,-140.9909"/>
</g>
<!-- SharedModule -->
<g id="node7" class="node">
<title>SharedModule</title>
<polygon fill="#8dd3c7" stroke="#000000" points="410.4231,-122 407.4231,-126 386.4231,-126 383.4231,-122 311.5769,-122 311.5769,-86 410.4231,-86 410.4231,-122"/>
<text text-anchor="middle" x="361" y="-99.8" font-family="Times,serif" font-size="14.00" fill="#000000">SharedModule</text>
</g>
<!-- SharedModule&#45;&gt;ProjectModule -->
<g id="edge6" class="edge">
<title>SharedModule&#45;&gt;ProjectModule</title>
<path fill="none" stroke="#000000" d="M361,-122.027C361,-138.3976 361,-160 361,-160 361,-160 507.3957,-160 507.3957,-160"/>
<polygon fill="#000000" stroke="#000000" points="507.3958,-163.5001 517.3957,-160 507.3957,-156.5001 507.3958,-163.5001"/>
</g>
<!-- TaskGridModule -->
<g id="node8" class="node">
<title>TaskGridModule</title>
<polygon fill="#8dd3c7" stroke="#000000" points="294.4202,-122 291.4202,-126 270.4202,-126 267.4202,-122 181.5798,-122 181.5798,-86 294.4202,-86 294.4202,-122"/>
<text text-anchor="middle" x="238" y="-99.8" font-family="Times,serif" font-size="14.00" fill="#000000">TaskGridModule</text>
</g>
<!-- TaskGridModule&#45;&gt;ProjectModule -->
<g id="edge7" class="edge">
<title>TaskGridModule&#45;&gt;ProjectModule</title>
<path fill="none" stroke="#000000" d="M238,-122.1061C238,-141.3391 238,-169 238,-169 238,-169 507.3892,-169 507.3892,-169"/>
<polygon fill="#000000" stroke="#000000" points="507.3892,-172.5001 517.3892,-169 507.3891,-165.5001 507.3892,-172.5001"/>
</g>
<!-- ProjectService -->
<g id="node10" class="node">
<title>ProjectService</title>
<ellipse fill="#fdb462" stroke="#000000" cx="91" cy="-104" rx="67.1888" ry="18"/>
<text text-anchor="middle" x="91" y="-99.8" font-family="Times,serif" font-size="14.00" fill="#000000">ProjectService</text>
</g>
<!-- ProjectService&#45;&gt;ProjectModule -->
<g id="edge9" class="edge">
<title>ProjectService&#45;&gt;ProjectModule</title>
<path fill="none" stroke="#000000" d="M91,-122.2921C91,-144.2057 91,-178 91,-178 91,-178 506.9593,-178 506.9593,-178"/>
<polygon fill="#000000" stroke="#000000" points="506.9594,-181.5001 516.9593,-178 506.9593,-174.5001 506.9594,-181.5001"/>
</g>
</g>
</svg>
