<?xml version="1.0" encoding="UTF-8" standalone="no"?>
<!DOCTYPE svg PUBLIC "-//W3C//DTD SVG 1.1//EN"
 "http://www.w3.org/Graphics/SVG/1.1/DTD/svg11.dtd">
<!-- Generated by graphviz version 2.40.1 (20161225.0304)
 -->
<!-- Title: dependencies Pages: 1 -->
<svg width="839pt" height="284pt"
 viewBox="0.00 0.00 839.00 284.00" xmlns="http://www.w3.org/2000/svg" xmlns:xlink="http://www.w3.org/1999/xlink">
<g id="graph0" class="graph" transform="scale(1 1) rotate(0) translate(4 280)">
<title>dependencies</title>
<polygon fill="#ffffff" stroke="transparent" points="-4,4 -4,-280 835,-280 835,4 -4,4"/>
<text text-anchor="start" x="394.5091" y="-42.4" font-family="sans-serif" font-weight="bold" font-size="14.00" fill="#000000">Legend</text>
<polygon fill="#ffffb3" stroke="transparent" points="181.5,-10 181.5,-30 201.5,-30 201.5,-10 181.5,-10"/>
<text text-anchor="start" x="205.129" y="-15.4" font-family="sans-serif" font-size="14.00" fill="#000000"> &#160;Declarations</text>
<polygon fill="#8dd3c7" stroke="transparent" points="294.5,-10 294.5,-30 314.5,-30 314.5,-10 294.5,-10"/>
<text text-anchor="start" x="318.2251" y="-15.4" font-family="sans-serif" font-size="14.00" fill="#000000"> &#160;Module</text>
<polygon fill="#80b1d3" stroke="transparent" points="380.5,-10 380.5,-30 400.5,-30 400.5,-10 380.5,-10"/>
<text text-anchor="start" x="404.2812" y="-15.4" font-family="sans-serif" font-size="14.00" fill="#000000"> &#160;Bootstrap</text>
<polygon fill="#fdb462" stroke="transparent" points="477.5,-10 477.5,-30 497.5,-30 497.5,-10 477.5,-10"/>
<text text-anchor="start" x="501.1732" y="-15.4" font-family="sans-serif" font-size="14.00" fill="#000000"> &#160;Providers</text>
<polygon fill="#fb8072" stroke="transparent" points="573.5,-10 573.5,-30 593.5,-30 593.5,-10 573.5,-10"/>
<text text-anchor="start" x="597.2258" y="-15.4" font-family="sans-serif" font-size="14.00" fill="#000000"> &#160;Exports</text>
<g id="clust1" class="cluster">
<title>cluster_GTToolbarModule</title>
<polygon fill="none" stroke="#000000" stroke-dasharray="1,5" points="8,-70 8,-268 823,-268 823,-70 8,-70"/>
</g>
<g id="clust2" class="cluster">
<title>cluster_GTToolbarModule_declarations</title>
<polygon fill="none" stroke="#000000" points="499,-78 499,-130 815,-130 815,-78 499,-78"/>
</g>
<g id="clust5" class="cluster">
<title>cluster_GTToolbarModule_imports</title>
<polygon fill="none" stroke="#000000" points="16,-78 16,-130 491,-130 491,-78 16,-78"/>
</g>
<g id="clust6" class="cluster">
<title>cluster_GTToolbarModule_exports</title>
<polygon fill="none" stroke="#000000" points="274,-208 274,-260 566,-260 566,-208 274,-208"/>
</g>
<!-- GTSearchComponent -->
<g id="node1" class="node">
<title>GTSearchComponent</title>
<polygon fill="#ffffb3" stroke="#000000" points="807.0786,-122 668.9214,-122 668.9214,-86 807.0786,-86 807.0786,-122"/>
<text text-anchor="middle" x="738" y="-99.8" font-family="Times,serif" font-size="14.00" fill="#000000">GTSearchComponent</text>
</g>
<!-- GTToolbarModule -->
<g id="node3" class="node">
<title>GTToolbarModule</title>
<polygon fill="#8dd3c7" stroke="#000000" points="471.0283,-187 468.0283,-191 447.0283,-191 444.0283,-187 348.9717,-187 348.9717,-151 471.0283,-151 471.0283,-187"/>
<text text-anchor="middle" x="410" y="-164.8" font-family="Times,serif" font-size="14.00" fill="#000000">GTToolbarModule</text>
</g>
<!-- GTSearchComponent&#45;&gt;GTToolbarModule -->
<g id="edge1" class="edge">
<title>GTSearchComponent&#45;&gt;GTToolbarModule</title>
<path fill="none" stroke="#000000" d="M738,-122.2843C738,-143.3211 738,-175 738,-175 738,-175 481.3095,-175 481.3095,-175"/>
<polygon fill="#000000" stroke="#000000" points="481.3096,-171.5001 471.3095,-175 481.3095,-178.5001 481.3096,-171.5001"/>
</g>
<!-- GTToolbarComponent -->
<g id="node2" class="node">
<title>GTToolbarComponent</title>
<polygon fill="#ffffb3" stroke="#000000" points="651.3103,-122 506.6897,-122 506.6897,-86 651.3103,-86 651.3103,-122"/>
<text text-anchor="middle" x="579" y="-99.8" font-family="Times,serif" font-size="14.00" fill="#000000">GTToolbarComponent</text>
</g>
<!-- GTToolbarComponent&#45;&gt;GTToolbarModule -->
<g id="edge2" class="edge">
<title>GTToolbarComponent&#45;&gt;GTToolbarModule</title>
<path fill="none" stroke="#000000" d="M532.375,-122.0225C532.375,-139.3734 532.375,-163 532.375,-163 532.375,-163 481.1875,-163 481.1875,-163"/>
<polygon fill="#000000" stroke="#000000" points="481.1875,-159.5001 471.1875,-163 481.1875,-166.5001 481.1875,-159.5001"/>
</g>
<!-- GTToolbarComponent  -->
<g id="node7" class="node">
<title>GTToolbarComponent </title>
<polygon fill="#fb8072" stroke="#000000" points="557.8101,-252 410.1899,-252 410.1899,-216 557.8101,-216 557.8101,-252"/>
<text text-anchor="middle" x="484" y="-229.8" font-family="Times,serif" font-size="14.00" fill="#000000">GTToolbarComponent </text>
</g>
<!-- GTToolbarModule&#45;&gt;GTToolbarComponent  -->
<g id="edge6" class="edge">
<title>GTToolbarModule&#45;&gt;GTToolbarComponent </title>
<path fill="none" stroke="#000000" stroke-dasharray="5,2" d="M440.6794,-187.1061C440.6794,-187.1061 440.6794,-205.991 440.6794,-205.991"/>
<polygon fill="#000000" stroke="#000000" points="437.1794,-205.9909 440.6794,-215.991 444.1794,-205.991 437.1794,-205.9909"/>
</g>
<!-- MaterialModule  -->
<g id="node8" class="node">
<title>MaterialModule </title>
<polygon fill="#fb8072" stroke="#000000" points="392.4716,-252 281.5284,-252 281.5284,-216 392.4716,-216 392.4716,-252"/>
<text text-anchor="middle" x="337" y="-229.8" font-family="Times,serif" font-size="14.00" fill="#000000">MaterialModule </text>
</g>
<!-- GTToolbarModule&#45;&gt;MaterialModule  -->
<g id="edge7" class="edge">
<title>GTToolbarModule&#45;&gt;MaterialModule </title>
<path fill="none" stroke="#000000" stroke-dasharray="5,2" d="M370.4858,-187.1061C370.4858,-187.1061 370.4858,-205.991 370.4858,-205.991"/>
<polygon fill="#000000" stroke="#000000" points="366.9859,-205.9909 370.4858,-215.991 373.9859,-205.991 366.9859,-205.9909"/>
</g>
<!-- GTNotificationModule -->
<g id="node4" class="node">
<title>GTNotificationModule</title>
<polygon fill="#8dd3c7" stroke="#000000" points="482.8585,-122 479.8585,-126 458.8585,-126 455.8585,-122 337.1415,-122 337.1415,-86 482.8585,-86 482.8585,-122"/>
<text text-anchor="middle" x="410" y="-99.8" font-family="Times,serif" font-size="14.00" fill="#000000">GTNotificationModule</text>
</g>
<!-- GTNotificationModule&#45;&gt;GTToolbarModule -->
<g id="edge3" class="edge">
<title>GTNotificationModule&#45;&gt;GTToolbarModule</title>
<path fill="none" stroke="#000000" d="M410,-122.1061C410,-122.1061 410,-140.991 410,-140.991"/>
<polygon fill="#000000" stroke="#000000" points="406.5001,-140.9909 410,-150.991 413.5001,-140.991 406.5001,-140.9909"/>
</g>
<!-- GTUserLoggedInfoModule -->
<g id="node5" class="node">
<title>GTUserLoggedInfoModule</title>
<polygon fill="#8dd3c7" stroke="#000000" points="319.224,-122 316.224,-126 295.224,-126 292.224,-122 148.776,-122 148.776,-86 319.224,-86 319.224,-122"/>
<text text-anchor="middle" x="234" y="-99.8" font-family="Times,serif" font-size="14.00" fill="#000000">GTUserLoggedInfoModule</text>
</g>
<!-- GTUserLoggedInfoModule&#45;&gt;GTToolbarModule -->
<g id="edge4" class="edge">
<title>GTUserLoggedInfoModule&#45;&gt;GTToolbarModule</title>
<path fill="none" stroke="#000000" d="M300.5633,-122.0225C300.5633,-139.3734 300.5633,-163 300.5633,-163 300.5633,-163 338.8824,-163 338.8824,-163"/>
<polygon fill="#000000" stroke="#000000" points="338.8824,-166.5001 348.8824,-163 338.8824,-159.5001 338.8824,-166.5001"/>
</g>
<!-- MaterialModule -->
<g id="node6" class="node">
<title>MaterialModule</title>
<polygon fill="#8dd3c7" stroke="#000000" points="130.4706,-122 127.4706,-126 106.4706,-126 103.4706,-122 23.5294,-122 23.5294,-86 130.4706,-86 130.4706,-122"/>
<text text-anchor="middle" x="77" y="-99.8" font-family="Times,serif" font-size="14.00" fill="#000000">MaterialModule</text>
</g>
<!-- MaterialModule&#45;&gt;GTToolbarModule -->
<g id="edge5" class="edge">
<title>MaterialModule&#45;&gt;GTToolbarModule</title>
<path fill="none" stroke="#000000" d="M77,-122.2843C77,-143.3211 77,-175 77,-175 77,-175 338.9227,-175 338.9227,-175"/>
<polygon fill="#000000" stroke="#000000" points="338.9227,-178.5001 348.9227,-175 338.9226,-171.5001 338.9227,-178.5001"/>
</g>
</g>
</svg>
