<?xml version="1.0" encoding="UTF-8" standalone="no"?>
<!DOCTYPE svg PUBLIC "-//W3C//DTD SVG 1.1//EN"
 "http://www.w3.org/Graphics/SVG/1.1/DTD/svg11.dtd">
<!-- Generated by graphviz version 2.40.1 (20161225.0304)
 -->
<!-- Title: dependencies Pages: 1 -->
<svg width="544pt" height="284pt"
 viewBox="0.00 0.00 544.00 284.00" xmlns="http://www.w3.org/2000/svg" xmlns:xlink="http://www.w3.org/1999/xlink">
<g id="graph0" class="graph" transform="scale(1 1) rotate(0) translate(4 280)">
<title>dependencies</title>
<polygon fill="#ffffff" stroke="transparent" points="-4,4 -4,-280 540,-280 540,4 -4,4"/>
<text text-anchor="start" x="247.0091" y="-42.4" font-family="sans-serif" font-weight="bold" font-size="14.00" fill="#000000">Legend</text>
<polygon fill="#ffffb3" stroke="transparent" points="34,-10 34,-30 54,-30 54,-10 34,-10"/>
<text text-anchor="start" x="57.629" y="-15.4" font-family="sans-serif" font-size="14.00" fill="#000000"> &#160;Declarations</text>
<polygon fill="#8dd3c7" stroke="transparent" points="147,-10 147,-30 167,-30 167,-10 147,-10"/>
<text text-anchor="start" x="170.7251" y="-15.4" font-family="sans-serif" font-size="14.00" fill="#000000"> &#160;Module</text>
<polygon fill="#80b1d3" stroke="transparent" points="233,-10 233,-30 253,-30 253,-10 233,-10"/>
<text text-anchor="start" x="256.7812" y="-15.4" font-family="sans-serif" font-size="14.00" fill="#000000"> &#160;Bootstrap</text>
<polygon fill="#fdb462" stroke="transparent" points="330,-10 330,-30 350,-30 350,-10 330,-10"/>
<text text-anchor="start" x="353.6732" y="-15.4" font-family="sans-serif" font-size="14.00" fill="#000000"> &#160;Providers</text>
<polygon fill="#fb8072" stroke="transparent" points="426,-10 426,-30 446,-30 446,-10 426,-10"/>
<text text-anchor="start" x="449.7258" y="-15.4" font-family="sans-serif" font-size="14.00" fill="#000000"> &#160;Exports</text>
<g id="clust1" class="cluster">
<title>cluster_GTFormsModule</title>
<polygon fill="none" stroke="#000000" stroke-dasharray="1,5" points="8,-70 8,-268 528,-268 528,-70 8,-70"/>
</g>
<g id="clust2" class="cluster">
<title>cluster_GTFormsModule_declarations</title>
<polygon fill="none" stroke="#000000" points="146,-78 146,-130 514,-130 514,-78 146,-78"/>
</g>
<g id="clust5" class="cluster">
<title>cluster_GTFormsModule_imports</title>
<polygon fill="none" stroke="#000000" points="16,-78 16,-130 138,-130 138,-78 16,-78"/>
</g>
<g id="clust6" class="cluster">
<title>cluster_GTFormsModule_exports</title>
<polygon fill="none" stroke="#000000" points="16,-208 16,-260 520,-260 520,-208 16,-208"/>
</g>
<!-- GTFormErrorComponent -->
<g id="node1" class="node">
<title>GTFormErrorComponent</title>
<polygon fill="#ffffb3" stroke="#000000" points="505.8599,-122 346.1401,-122 346.1401,-86 505.8599,-86 505.8599,-122"/>
<text text-anchor="middle" x="426" y="-99.8" font-family="Times,serif" font-size="14.00" fill="#000000">GTFormErrorComponent</text>
</g>
<!-- GTFormsModule -->
<g id="node3" class="node">
<title>GTFormsModule</title>
<polygon fill="#8dd3c7" stroke="#000000" points="297.9874,-187 294.9874,-191 273.9874,-191 270.9874,-187 184.0126,-187 184.0126,-151 297.9874,-151 297.9874,-187"/>
<text text-anchor="middle" x="241" y="-164.8" font-family="Times,serif" font-size="14.00" fill="#000000">GTFormsModule</text>
</g>
<!-- GTFormErrorComponent&#45;&gt;GTFormsModule -->
<g id="edge1" class="edge">
<title>GTFormErrorComponent&#45;&gt;GTFormsModule</title>
<path fill="none" stroke="#000000" d="M453.3933,-122.0225C453.3933,-139.3734 453.3933,-163 453.3933,-163 453.3933,-163 308.1969,-163 308.1969,-163"/>
<polygon fill="#000000" stroke="#000000" points="308.1969,-159.5001 298.1969,-163 308.1969,-166.5001 308.1969,-159.5001"/>
</g>
<!-- GTFormSuccessComponent -->
<g id="node2" class="node">
<title>GTFormSuccessComponent</title>
<polygon fill="#ffffb3" stroke="#000000" points="328.1414,-122 153.8586,-122 153.8586,-86 328.1414,-86 328.1414,-122"/>
<text text-anchor="middle" x="241" y="-99.8" font-family="Times,serif" font-size="14.00" fill="#000000">GTFormSuccessComponent</text>
</g>
<!-- GTFormSuccessComponent&#45;&gt;GTFormsModule -->
<g id="edge2" class="edge">
<title>GTFormSuccessComponent&#45;&gt;GTFormsModule</title>
<path fill="none" stroke="#000000" d="M241,-122.1061C241,-122.1061 241,-140.991 241,-140.991"/>
<polygon fill="#000000" stroke="#000000" points="237.5001,-140.9909 241,-150.991 244.5001,-140.991 237.5001,-140.9909"/>
</g>
<!-- GTFormErrorComponent  -->
<g id="node5" class="node">
<title>GTFormErrorComponent </title>
<polygon fill="#fb8072" stroke="#000000" points="511.8602,-252 348.1398,-252 348.1398,-216 511.8602,-216 511.8602,-252"/>
<text text-anchor="middle" x="430" y="-229.8" font-family="Times,serif" font-size="14.00" fill="#000000">GTFormErrorComponent </text>
</g>
<!-- GTFormsModule&#45;&gt;GTFormErrorComponent  -->
<g id="edge4" class="edge">
<title>GTFormsModule&#45;&gt;GTFormErrorComponent </title>
<path fill="none" stroke="#000000" stroke-dasharray="5,2" d="M298.2604,-175C344.1296,-175 400.8567,-175 400.8567,-175 400.8567,-175 400.8567,-205.9775 400.8567,-205.9775"/>
<polygon fill="#000000" stroke="#000000" points="397.3568,-205.9774 400.8567,-215.9775 404.3568,-205.9775 397.3568,-205.9774"/>
</g>
<!-- GTFormSuccessComponent  -->
<g id="node6" class="node">
<title>GTFormSuccessComponent </title>
<polygon fill="#fb8072" stroke="#000000" points="330.1411,-252 151.8589,-252 151.8589,-216 330.1411,-216 330.1411,-252"/>
<text text-anchor="middle" x="241" y="-229.8" font-family="Times,serif" font-size="14.00" fill="#000000">GTFormSuccessComponent </text>
</g>
<!-- GTFormsModule&#45;&gt;GTFormSuccessComponent  -->
<g id="edge5" class="edge">
<title>GTFormsModule&#45;&gt;GTFormSuccessComponent </title>
<path fill="none" stroke="#000000" stroke-dasharray="5,2" d="M241,-187.1061C241,-187.1061 241,-205.991 241,-205.991"/>
<polygon fill="#000000" stroke="#000000" points="237.5001,-205.9909 241,-215.991 244.5001,-205.991 237.5001,-205.9909"/>
</g>
<!-- MaterialModule  -->
<g id="node7" class="node">
<title>MaterialModule </title>
<polygon fill="#fb8072" stroke="#000000" points="134.4716,-252 23.5284,-252 23.5284,-216 134.4716,-216 134.4716,-252"/>
<text text-anchor="middle" x="79" y="-229.8" font-family="Times,serif" font-size="14.00" fill="#000000">MaterialModule </text>
</g>
<!-- GTFormsModule&#45;&gt;MaterialModule  -->
<g id="edge6" class="edge">
<title>GTFormsModule&#45;&gt;MaterialModule </title>
<path fill="none" stroke="#000000" stroke-dasharray="5,2" d="M183.6814,-175C142.7539,-175 94.9118,-175 94.9118,-175 94.9118,-175 94.9118,-205.9775 94.9118,-205.9775"/>
<polygon fill="#000000" stroke="#000000" points="91.4119,-205.9774 94.9118,-215.9775 98.4119,-205.9775 91.4119,-205.9774"/>
</g>
<!-- MaterialModule -->
<g id="node4" class="node">
<title>MaterialModule</title>
<polygon fill="#8dd3c7" stroke="#000000" points="130.4706,-122 127.4706,-126 106.4706,-126 103.4706,-122 23.5294,-122 23.5294,-86 130.4706,-86 130.4706,-122"/>
<text text-anchor="middle" x="77" y="-99.8" font-family="Times,serif" font-size="14.00" fill="#000000">MaterialModule</text>
</g>
<!-- MaterialModule&#45;&gt;GTFormsModule -->
<g id="edge3" class="edge">
<title>MaterialModule&#45;&gt;GTFormsModule</title>
<path fill="none" stroke="#000000" d="M59.3382,-122.0225C59.3382,-139.3734 59.3382,-163 59.3382,-163 59.3382,-163 173.5211,-163 173.5211,-163"/>
<polygon fill="#000000" stroke="#000000" points="173.5211,-166.5001 183.5211,-163 173.521,-159.5001 173.5211,-166.5001"/>
</g>
</g>
</svg>
