<?xml version="1.0" encoding="UTF-8" standalone="no"?>
<!DOCTYPE svg PUBLIC "-//W3C//DTD SVG 1.1//EN"
 "http://www.w3.org/Graphics/SVG/1.1/DTD/svg11.dtd">
<!-- Generated by graphviz version 2.40.1 (20161225.0304)
 -->
<!-- Title: dependencies Pages: 1 -->
<svg width="537pt" height="284pt"
 viewBox="0.00 0.00 537.00 284.00" xmlns="http://www.w3.org/2000/svg" xmlns:xlink="http://www.w3.org/1999/xlink">
<g id="graph0" class="graph" transform="scale(1 1) rotate(0) translate(4 280)">
<title>dependencies</title>
<polygon fill="#ffffff" stroke="transparent" points="-4,4 -4,-280 533,-280 533,4 -4,4"/>
<text text-anchor="start" x="243.5091" y="-42.4" font-family="sans-serif" font-weight="bold" font-size="14.00" fill="#000000">Legend</text>
<polygon fill="#ffffb3" stroke="transparent" points="30.5,-10 30.5,-30 50.5,-30 50.5,-10 30.5,-10"/>
<text text-anchor="start" x="54.129" y="-15.4" font-family="sans-serif" font-size="14.00" fill="#000000"> &#160;Declarations</text>
<polygon fill="#8dd3c7" stroke="transparent" points="143.5,-10 143.5,-30 163.5,-30 163.5,-10 143.5,-10"/>
<text text-anchor="start" x="167.2251" y="-15.4" font-family="sans-serif" font-size="14.00" fill="#000000"> &#160;Module</text>
<polygon fill="#80b1d3" stroke="transparent" points="229.5,-10 229.5,-30 249.5,-30 249.5,-10 229.5,-10"/>
<text text-anchor="start" x="253.2812" y="-15.4" font-family="sans-serif" font-size="14.00" fill="#000000"> &#160;Bootstrap</text>
<polygon fill="#fdb462" stroke="transparent" points="326.5,-10 326.5,-30 346.5,-30 346.5,-10 326.5,-10"/>
<text text-anchor="start" x="350.1732" y="-15.4" font-family="sans-serif" font-size="14.00" fill="#000000"> &#160;Providers</text>
<polygon fill="#fb8072" stroke="transparent" points="422.5,-10 422.5,-30 442.5,-30 442.5,-10 422.5,-10"/>
<text text-anchor="start" x="446.2258" y="-15.4" font-family="sans-serif" font-size="14.00" fill="#000000"> &#160;Exports</text>
<g id="clust1" class="cluster">
<title>cluster_InboxModule</title>
<polygon fill="none" stroke="#000000" stroke-dasharray="1,5" points="8,-70 8,-268 521,-268 521,-70 8,-70"/>
</g>
<g id="clust2" class="cluster">
<title>cluster_InboxModule_declarations</title>
<polygon fill="none" stroke="#000000" points="243,-78 243,-130 513,-130 513,-78 243,-78"/>
</g>
<g id="clust5" class="cluster">
<title>cluster_InboxModule_imports</title>
<polygon fill="none" stroke="#000000" points="16,-78 16,-130 235,-130 235,-78 16,-78"/>
</g>
<g id="clust6" class="cluster">
<title>cluster_InboxModule_exports</title>
<polygon fill="none" stroke="#000000" points="106,-208 106,-260 384,-260 384,-208 106,-208"/>
</g>
<!-- DialogJustMockup -->
<g id="node1" class="node">
<title>DialogJustMockup</title>
<polygon fill="#ffffb3" stroke="#000000" points="505.0423,-122 382.9577,-122 382.9577,-86 505.0423,-86 505.0423,-122"/>
<text text-anchor="middle" x="444" y="-99.8" font-family="Times,serif" font-size="14.00" fill="#000000">DialogJustMockup</text>
</g>
<!-- InboxModule -->
<g id="node3" class="node">
<title>InboxModule</title>
<polygon fill="#8dd3c7" stroke="#000000" points="289.2106,-187 286.2106,-191 265.2106,-191 262.2106,-187 196.7894,-187 196.7894,-151 289.2106,-151 289.2106,-187"/>
<text text-anchor="middle" x="243" y="-164.8" font-family="Times,serif" font-size="14.00" fill="#000000">InboxModule</text>
</g>
<!-- DialogJustMockup&#45;&gt;InboxModule -->
<g id="edge1" class="edge">
<title>DialogJustMockup&#45;&gt;InboxModule</title>
<path fill="none" stroke="#000000" d="M444,-122.1061C444,-141.3391 444,-169 444,-169 444,-169 299.1135,-169 299.1135,-169"/>
<polygon fill="#000000" stroke="#000000" points="299.1135,-165.5001 289.1135,-169 299.1134,-172.5001 299.1135,-165.5001"/>
</g>
<!-- InboxComponent -->
<g id="node2" class="node">
<title>InboxComponent</title>
<polygon fill="#ffffb3" stroke="#000000" points="364.993,-122 251.007,-122 251.007,-86 364.993,-86 364.993,-122"/>
<text text-anchor="middle" x="308" y="-99.8" font-family="Times,serif" font-size="14.00" fill="#000000">InboxComponent</text>
</g>
<!-- InboxComponent&#45;&gt;InboxModule -->
<g id="edge2" class="edge">
<title>InboxComponent&#45;&gt;InboxModule</title>
<path fill="none" stroke="#000000" d="M270.0544,-122.1061C270.0544,-122.1061 270.0544,-140.991 270.0544,-140.991"/>
<polygon fill="#000000" stroke="#000000" points="266.5544,-140.9909 270.0544,-150.991 273.5544,-140.991 266.5544,-140.9909"/>
</g>
<!-- DialogJustMockup  -->
<g id="node6" class="node">
<title>DialogJustMockup </title>
<polygon fill="#fb8072" stroke="#000000" points="376.0414,-252 249.9586,-252 249.9586,-216 376.0414,-216 376.0414,-252"/>
<text text-anchor="middle" x="313" y="-229.8" font-family="Times,serif" font-size="14.00" fill="#000000">DialogJustMockup </text>
</g>
<!-- InboxModule&#45;&gt;DialogJustMockup  -->
<g id="edge5" class="edge">
<title>InboxModule&#45;&gt;DialogJustMockup </title>
<path fill="none" stroke="#000000" stroke-dasharray="5,2" d="M269.5423,-187.1061C269.5423,-187.1061 269.5423,-205.991 269.5423,-205.991"/>
<polygon fill="#000000" stroke="#000000" points="266.0423,-205.9909 269.5423,-215.991 273.0423,-205.991 266.0423,-205.9909"/>
</g>
<!-- InboxComponent  -->
<g id="node7" class="node">
<title>InboxComponent </title>
<polygon fill="#fb8072" stroke="#000000" points="231.994,-252 114.006,-252 114.006,-216 231.994,-216 231.994,-252"/>
<text text-anchor="middle" x="173" y="-229.8" font-family="Times,serif" font-size="14.00" fill="#000000">InboxComponent </text>
</g>
<!-- InboxModule&#45;&gt;InboxComponent  -->
<g id="edge6" class="edge">
<title>InboxModule&#45;&gt;InboxComponent </title>
<path fill="none" stroke="#000000" stroke-dasharray="5,2" d="M214.3207,-187.1061C214.3207,-187.1061 214.3207,-205.991 214.3207,-205.991"/>
<polygon fill="#000000" stroke="#000000" points="210.8207,-205.9909 214.3207,-215.991 217.8207,-205.991 210.8207,-205.9909"/>
</g>
<!-- CoreModule -->
<g id="node4" class="node">
<title>CoreModule</title>
<polygon fill="#8dd3c7" stroke="#000000" points="227.2619,-122 224.2619,-126 203.2619,-126 200.2619,-122 140.7381,-122 140.7381,-86 227.2619,-86 227.2619,-122"/>
<text text-anchor="middle" x="184" y="-99.8" font-family="Times,serif" font-size="14.00" fill="#000000">CoreModule</text>
</g>
<!-- CoreModule&#45;&gt;InboxModule -->
<g id="edge3" class="edge">
<title>CoreModule&#45;&gt;InboxModule</title>
<path fill="none" stroke="#000000" d="M212.1378,-122.1061C212.1378,-122.1061 212.1378,-140.991 212.1378,-140.991"/>
<polygon fill="#000000" stroke="#000000" points="208.6379,-140.9909 212.1378,-150.991 215.6379,-140.991 208.6379,-140.9909"/>
</g>
<!-- SharedModule -->
<g id="node5" class="node">
<title>SharedModule</title>
<polygon fill="#8dd3c7" stroke="#000000" points="122.4231,-122 119.4231,-126 98.4231,-126 95.4231,-122 23.5769,-122 23.5769,-86 122.4231,-86 122.4231,-122"/>
<text text-anchor="middle" x="73" y="-99.8" font-family="Times,serif" font-size="14.00" fill="#000000">SharedModule</text>
</g>
<!-- SharedModule&#45;&gt;InboxModule -->
<g id="edge4" class="edge">
<title>SharedModule&#45;&gt;InboxModule</title>
<path fill="none" stroke="#000000" d="M118.2323,-122.1061C118.2323,-141.3391 118.2323,-169 118.2323,-169 118.2323,-169 186.5411,-169 186.5411,-169"/>
<polygon fill="#000000" stroke="#000000" points="186.5411,-172.5001 196.5411,-169 186.5411,-165.5001 186.5411,-172.5001"/>
</g>
</g>
</svg>
