<?xml version="1.0" encoding="UTF-8" standalone="no"?>
<!DOCTYPE svg PUBLIC "-//W3C//DTD SVG 1.1//EN"
 "http://www.w3.org/Graphics/SVG/1.1/DTD/svg11.dtd">
<!-- Generated by graphviz version 2.40.1 (20161225.0304)
 -->
<!-- Title: dependencies Pages: 1 -->
<svg width="504pt" height="284pt"
 viewBox="0.00 0.00 504.00 284.00" xmlns="http://www.w3.org/2000/svg" xmlns:xlink="http://www.w3.org/1999/xlink">
<g id="graph0" class="graph" transform="scale(1 1) rotate(0) translate(4 280)">
<title>dependencies</title>
<polygon fill="#ffffff" stroke="transparent" points="-4,4 -4,-280 500,-280 500,4 -4,4"/>
<text text-anchor="start" x="227.0091" y="-42.4" font-family="sans-serif" font-weight="bold" font-size="14.00" fill="#000000">Legend</text>
<polygon fill="#ffffb3" stroke="transparent" points="14,-10 14,-30 34,-30 34,-10 14,-10"/>
<text text-anchor="start" x="37.629" y="-15.4" font-family="sans-serif" font-size="14.00" fill="#000000"> &#160;Declarations</text>
<polygon fill="#8dd3c7" stroke="transparent" points="127,-10 127,-30 147,-30 147,-10 127,-10"/>
<text text-anchor="start" x="150.7251" y="-15.4" font-family="sans-serif" font-size="14.00" fill="#000000"> &#160;Module</text>
<polygon fill="#80b1d3" stroke="transparent" points="213,-10 213,-30 233,-30 233,-10 213,-10"/>
<text text-anchor="start" x="236.7812" y="-15.4" font-family="sans-serif" font-size="14.00" fill="#000000"> &#160;Bootstrap</text>
<polygon fill="#fdb462" stroke="transparent" points="310,-10 310,-30 330,-30 330,-10 310,-10"/>
<text text-anchor="start" x="333.6732" y="-15.4" font-family="sans-serif" font-size="14.00" fill="#000000"> &#160;Providers</text>
<polygon fill="#fb8072" stroke="transparent" points="406,-10 406,-30 426,-30 426,-10 406,-10"/>
<text text-anchor="start" x="429.7258" y="-15.4" font-family="sans-serif" font-size="14.00" fill="#000000"> &#160;Exports</text>
<g id="clust1" class="cluster">
<title>cluster_GTDatatableModule</title>
<polygon fill="none" stroke="#000000" stroke-dasharray="1,5" points="90,-70 90,-268 406,-268 406,-70 90,-70"/>
</g>
<g id="clust2" class="cluster">
<title>cluster_GTDatatableModule_declarations</title>
<polygon fill="none" stroke="#000000" points="228,-78 228,-130 398,-130 398,-78 228,-78"/>
</g>
<g id="clust4" class="cluster">
<title>cluster_GTDatatableModule_imports</title>
<polygon fill="none" stroke="#000000" points="98,-78 98,-130 220,-130 220,-78 98,-78"/>
</g>
<g id="clust5" class="cluster">
<title>cluster_GTDatatableModule_exports</title>
<polygon fill="none" stroke="#000000" points="161,-208 161,-260 335,-260 335,-208 161,-208"/>
</g>
<!-- GTDatatableComponent -->
<g id="node1" class="node">
<title>GTDatatableComponent</title>
<polygon fill="#ffffb3" stroke="#000000" points="389.6288,-122 236.3712,-122 236.3712,-86 389.6288,-86 389.6288,-122"/>
<text text-anchor="middle" x="313" y="-99.8" font-family="Times,serif" font-size="14.00" fill="#000000">GTDatatableComponent</text>
</g>
<!-- GTDatatableModule -->
<g id="node2" class="node">
<title>GTDatatableModule</title>
<polygon fill="#8dd3c7" stroke="#000000" points="313.8459,-187 310.8459,-191 289.8459,-191 286.8459,-187 182.1541,-187 182.1541,-151 313.8459,-151 313.8459,-187"/>
<text text-anchor="middle" x="248" y="-164.8" font-family="Times,serif" font-size="14.00" fill="#000000">GTDatatableModule</text>
</g>
<!-- GTDatatableComponent&#45;&gt;GTDatatableModule -->
<g id="edge1" class="edge">
<title>GTDatatableComponent&#45;&gt;GTDatatableModule</title>
<path fill="none" stroke="#000000" d="M275.0544,-122.1061C275.0544,-122.1061 275.0544,-140.991 275.0544,-140.991"/>
<polygon fill="#000000" stroke="#000000" points="271.5544,-140.9909 275.0544,-150.991 278.5544,-140.991 271.5544,-140.9909"/>
</g>
<!-- GTDatatableComponent  -->
<g id="node4" class="node">
<title>GTDatatableComponent </title>
<polygon fill="#fb8072" stroke="#000000" points="326.6285,-252 169.3715,-252 169.3715,-216 326.6285,-216 326.6285,-252"/>
<text text-anchor="middle" x="248" y="-229.8" font-family="Times,serif" font-size="14.00" fill="#000000">GTDatatableComponent </text>
</g>
<!-- GTDatatableModule&#45;&gt;GTDatatableComponent  -->
<g id="edge3" class="edge">
<title>GTDatatableModule&#45;&gt;GTDatatableComponent </title>
<path fill="none" stroke="#000000" stroke-dasharray="5,2" d="M248,-187.1061C248,-187.1061 248,-205.991 248,-205.991"/>
<polygon fill="#000000" stroke="#000000" points="244.5001,-205.9909 248,-215.991 251.5001,-205.991 244.5001,-205.9909"/>
</g>
<!-- MaterialModule -->
<g id="node3" class="node">
<title>MaterialModule</title>
<polygon fill="#8dd3c7" stroke="#000000" points="212.4706,-122 209.4706,-126 188.4706,-126 185.4706,-122 105.5294,-122 105.5294,-86 212.4706,-86 212.4706,-122"/>
<text text-anchor="middle" x="159" y="-99.8" font-family="Times,serif" font-size="14.00" fill="#000000">MaterialModule</text>
</g>
<!-- MaterialModule&#45;&gt;GTDatatableModule -->
<g id="edge2" class="edge">
<title>MaterialModule&#45;&gt;GTDatatableModule</title>
<path fill="none" stroke="#000000" d="M197.2812,-122.1061C197.2812,-122.1061 197.2812,-140.991 197.2812,-140.991"/>
<polygon fill="#000000" stroke="#000000" points="193.7813,-140.9909 197.2812,-150.991 200.7813,-140.991 193.7813,-140.9909"/>
</g>
</g>
</svg>
