<?xml version="1.0" encoding="UTF-8" standalone="no"?>
<!DOCTYPE svg PUBLIC "-//W3C//DTD SVG 1.1//EN"
 "http://www.w3.org/Graphics/SVG/1.1/DTD/svg11.dtd">
<!-- Generated by graphviz version 2.40.1 (20161225.0304)
 -->
<!-- Title: dependencies Pages: 1 -->
<svg width="504pt" height="211pt"
 viewBox="0.00 0.00 504.00 211.00" xmlns="http://www.w3.org/2000/svg" xmlns:xlink="http://www.w3.org/1999/xlink">
<g id="graph0" class="graph" transform="scale(1 1) rotate(0) translate(4 207)">
<title>dependencies</title>
<polygon fill="#ffffff" stroke="transparent" points="-4,4 -4,-207 500,-207 500,4 -4,4"/>
<text text-anchor="start" x="227.0091" y="-42.4" font-family="sans-serif" font-weight="bold" font-size="14.00" fill="#000000">Legend</text>
<polygon fill="#ffffb3" stroke="transparent" points="14,-10 14,-30 34,-30 34,-10 14,-10"/>
<text text-anchor="start" x="37.629" y="-15.4" font-family="sans-serif" font-size="14.00" fill="#000000"> &#160;Declarations</text>
<polygon fill="#8dd3c7" stroke="transparent" points="127,-10 127,-30 147,-30 147,-10 127,-10"/>
<text text-anchor="start" x="150.7251" y="-15.4" font-family="sans-serif" font-size="14.00" fill="#000000"> &#160;Module</text>
<polygon fill="#80b1d3" stroke="transparent" points="213,-10 213,-30 233,-30 233,-10 213,-10"/>
<text text-anchor="start" x="236.7812" y="-15.4" font-family="sans-serif" font-size="14.00" fill="#000000"> &#160;Bootstrap</text>
<polygon fill="#fdb462" stroke="transparent" points="310,-10 310,-30 330,-30 330,-10 310,-10"/>
<text text-anchor="start" x="333.6732" y="-15.4" font-family="sans-serif" font-size="14.00" fill="#000000"> &#160;Providers</text>
<polygon fill="#fb8072" stroke="transparent" points="406,-10 406,-30 426,-30 426,-10 406,-10"/>
<text text-anchor="start" x="429.7258" y="-15.4" font-family="sans-serif" font-size="14.00" fill="#000000"> &#160;Exports</text>
<g id="clust1" class="cluster">
<title>cluster_LoginModule</title>
<polygon fill="none" stroke="#000000" stroke-dasharray="1,5" points="61.5,-70 61.5,-195 434.5,-195 434.5,-70 61.5,-70"/>
</g>
<g id="clust2" class="cluster">
<title>cluster_LoginModule_declarations</title>
<polygon fill="none" stroke="#000000" points="296.5,-78 296.5,-130 426.5,-130 426.5,-78 296.5,-78"/>
</g>
<g id="clust4" class="cluster">
<title>cluster_LoginModule_imports</title>
<polygon fill="none" stroke="#000000" points="69.5,-78 69.5,-130 288.5,-130 288.5,-78 69.5,-78"/>
</g>
<!-- LoginComponent -->
<g id="node1" class="node">
<title>LoginComponent</title>
<polygon fill="#ffffb3" stroke="#000000" points="418.7758,-122 304.2242,-122 304.2242,-86 418.7758,-86 418.7758,-122"/>
<text text-anchor="middle" x="361.5" y="-99.8" font-family="Times,serif" font-size="14.00" fill="#000000">LoginComponent</text>
</g>
<!-- LoginModule -->
<g id="node2" class="node">
<title>LoginModule</title>
<polygon fill="#8dd3c7" stroke="#000000" points="283.993,-187 280.993,-191 259.993,-191 256.993,-187 191.007,-187 191.007,-151 283.993,-151 283.993,-187"/>
<text text-anchor="middle" x="237.5" y="-164.8" font-family="Times,serif" font-size="14.00" fill="#000000">LoginModule</text>
</g>
<!-- LoginComponent&#45;&gt;LoginModule -->
<g id="edge1" class="edge">
<title>LoginComponent&#45;&gt;LoginModule</title>
<path fill="none" stroke="#000000" d="M361.5,-122.1061C361.5,-141.3391 361.5,-169 361.5,-169 361.5,-169 294.0258,-169 294.0258,-169"/>
<polygon fill="#000000" stroke="#000000" points="294.0258,-165.5001 284.0258,-169 294.0258,-172.5001 294.0258,-165.5001"/>
</g>
<!-- CoreModule -->
<g id="node3" class="node">
<title>CoreModule</title>
<polygon fill="#8dd3c7" stroke="#000000" points="280.7619,-122 277.7619,-126 256.7619,-126 253.7619,-122 194.2381,-122 194.2381,-86 280.7619,-86 280.7619,-122"/>
<text text-anchor="middle" x="237.5" y="-99.8" font-family="Times,serif" font-size="14.00" fill="#000000">CoreModule</text>
</g>
<!-- CoreModule&#45;&gt;LoginModule -->
<g id="edge2" class="edge">
<title>CoreModule&#45;&gt;LoginModule</title>
<path fill="none" stroke="#000000" d="M237.5,-122.1061C237.5,-122.1061 237.5,-140.991 237.5,-140.991"/>
<polygon fill="#000000" stroke="#000000" points="234.0001,-140.9909 237.5,-150.991 241.0001,-140.991 234.0001,-140.9909"/>
</g>
<!-- SharedModule -->
<g id="node4" class="node">
<title>SharedModule</title>
<polygon fill="#8dd3c7" stroke="#000000" points="175.9231,-122 172.9231,-126 151.9231,-126 148.9231,-122 77.0769,-122 77.0769,-86 175.9231,-86 175.9231,-122"/>
<text text-anchor="middle" x="126.5" y="-99.8" font-family="Times,serif" font-size="14.00" fill="#000000">SharedModule</text>
</g>
<!-- SharedModule&#45;&gt;LoginModule -->
<g id="edge3" class="edge">
<title>SharedModule&#45;&gt;LoginModule</title>
<path fill="none" stroke="#000000" d="M126.5,-122.1061C126.5,-141.3391 126.5,-169 126.5,-169 126.5,-169 180.7477,-169 180.7477,-169"/>
<polygon fill="#000000" stroke="#000000" points="180.7478,-172.5001 190.7477,-169 180.7477,-165.5001 180.7478,-172.5001"/>
</g>
</g>
</svg>
