<?xml version="1.0" encoding="UTF-8" standalone="no"?>
<!DOCTYPE svg PUBLIC "-//W3C//DTD SVG 1.1//EN"
 "http://www.w3.org/Graphics/SVG/1.1/DTD/svg11.dtd">
<!-- Generated by graphviz version 2.40.1 (20161225.0304)
 -->
<!-- Title: dependencies Pages: 1 -->
<svg width="565pt" height="211pt"
 viewBox="0.00 0.00 565.00 211.00" xmlns="http://www.w3.org/2000/svg" xmlns:xlink="http://www.w3.org/1999/xlink">
<g id="graph0" class="graph" transform="scale(1 1) rotate(0) translate(4 207)">
<title>dependencies</title>
<polygon fill="#ffffff" stroke="transparent" points="-4,4 -4,-207 561,-207 561,4 -4,4"/>
<text text-anchor="start" x="257.5091" y="-42.4" font-family="sans-serif" font-weight="bold" font-size="14.00" fill="#000000">Legend</text>
<polygon fill="#ffffb3" stroke="transparent" points="44.5,-10 44.5,-30 64.5,-30 64.5,-10 44.5,-10"/>
<text text-anchor="start" x="68.129" y="-15.4" font-family="sans-serif" font-size="14.00" fill="#000000"> &#160;Declarations</text>
<polygon fill="#8dd3c7" stroke="transparent" points="157.5,-10 157.5,-30 177.5,-30 177.5,-10 157.5,-10"/>
<text text-anchor="start" x="181.2251" y="-15.4" font-family="sans-serif" font-size="14.00" fill="#000000"> &#160;Module</text>
<polygon fill="#80b1d3" stroke="transparent" points="243.5,-10 243.5,-30 263.5,-30 263.5,-10 243.5,-10"/>
<text text-anchor="start" x="267.2812" y="-15.4" font-family="sans-serif" font-size="14.00" fill="#000000"> &#160;Bootstrap</text>
<polygon fill="#fdb462" stroke="transparent" points="340.5,-10 340.5,-30 360.5,-30 360.5,-10 340.5,-10"/>
<text text-anchor="start" x="364.1732" y="-15.4" font-family="sans-serif" font-size="14.00" fill="#000000"> &#160;Providers</text>
<polygon fill="#fb8072" stroke="transparent" points="436.5,-10 436.5,-30 456.5,-30 456.5,-10 436.5,-10"/>
<text text-anchor="start" x="460.2258" y="-15.4" font-family="sans-serif" font-size="14.00" fill="#000000"> &#160;Exports</text>
<g id="clust1" class="cluster">
<title>cluster_CoreModule</title>
<polygon fill="none" stroke="#000000" stroke-dasharray="1,5" points="8,-70 8,-195 549,-195 549,-70 8,-70"/>
</g>
<g id="clust6" class="cluster">
<title>cluster_CoreModule_providers</title>
<polygon fill="none" stroke="#000000" points="16,-78 16,-130 541,-130 541,-78 16,-78"/>
</g>
<!-- AuthInterceptor -->
<g id="node1" class="node">
<title>AuthInterceptor</title>
<ellipse fill="#fdb462" stroke="#000000" cx="460" cy="-104" rx="72.9121" ry="18"/>
<text text-anchor="middle" x="460" y="-99.8" font-family="Times,serif" font-size="14.00" fill="#000000">AuthInterceptor</text>
</g>
<!-- CoreModule -->
<g id="node4" class="node">
<title>CoreModule</title>
<polygon fill="#8dd3c7" stroke="#000000" points="332.2619,-187 329.2619,-191 308.2619,-191 305.2619,-187 245.7381,-187 245.7381,-151 332.2619,-151 332.2619,-187"/>
<text text-anchor="middle" x="289" y="-164.8" font-family="Times,serif" font-size="14.00" fill="#000000">CoreModule</text>
</g>
<!-- AuthInterceptor&#45;&gt;CoreModule -->
<g id="edge1" class="edge">
<title>AuthInterceptor&#45;&gt;CoreModule</title>
<path fill="none" stroke="#000000" d="M460,-122.1061C460,-141.3391 460,-169 460,-169 460,-169 342.593,-169 342.593,-169"/>
<polygon fill="#000000" stroke="#000000" points="342.593,-165.5001 332.593,-169 342.5929,-172.5001 342.593,-165.5001"/>
</g>
<!-- LoaderInterceptor -->
<g id="node2" class="node">
<title>LoaderInterceptor</title>
<ellipse fill="#fdb462" stroke="#000000" cx="289" cy="-104" rx="80.9775" ry="18"/>
<text text-anchor="middle" x="289" y="-99.8" font-family="Times,serif" font-size="14.00" fill="#000000">LoaderInterceptor</text>
</g>
<!-- LoaderInterceptor&#45;&gt;CoreModule -->
<g id="edge2" class="edge">
<title>LoaderInterceptor&#45;&gt;CoreModule</title>
<path fill="none" stroke="#000000" d="M289,-122.1061C289,-122.1061 289,-140.991 289,-140.991"/>
<polygon fill="#000000" stroke="#000000" points="285.5001,-140.9909 289,-150.991 292.5001,-140.991 285.5001,-140.9909"/>
</g>
<!-- ProfilerInterceptor -->
<g id="node3" class="node">
<title>ProfilerInterceptor</title>
<ellipse fill="#fdb462" stroke="#000000" cx="107" cy="-104" rx="82.7782" ry="18"/>
<text text-anchor="middle" x="107" y="-99.8" font-family="Times,serif" font-size="14.00" fill="#000000">ProfilerInterceptor</text>
</g>
<!-- ProfilerInterceptor&#45;&gt;CoreModule -->
<g id="edge3" class="edge">
<title>ProfilerInterceptor&#45;&gt;CoreModule</title>
<path fill="none" stroke="#000000" d="M107,-122.1061C107,-141.3391 107,-169 107,-169 107,-169 235.4065,-169 235.4065,-169"/>
<polygon fill="#000000" stroke="#000000" points="235.4065,-172.5001 245.4065,-169 235.4064,-165.5001 235.4065,-172.5001"/>
</g>
</g>
</svg>
